<?xml version="1.0" encoding="UTF-8"?>
<!-- Generator: CustomSymbols v2.7.2.48 by @serious_bret https://bretlester.com/app_content/CustomSymbols/ -->
<!-- Guides: Left/Right 0.0/0.0 Cap/Base 0.0/0.0 -->
<!-- Settings: RefScale 1.0 Min/Max Stroke Scales 0.5/2.21 -->
<!DOCTYPE svg
PUBLIC "-//W3C//DTD SVG 1.1//EN"
       "http://www.w3.org/Graphics/SVG/1.1/DTD/svg11.dtd">
<svg version="1.1" xmlns="http://www.w3.org/2000/svg" xmlns:xlink="http://www.w3.org/1999/xlink" width="3300" height="2200">
<![CDATA[<svg width="32" height="32" viewBox="0 0 32 32" fill="none" xmlns="http://www.w3.org/2000/svg">
<path d="M12.8084 8.82541C12.7707 8.8472 12.7347 8.87111 12.7002 8.89668L4.43392 4.12862C4.46897 4.1021 4.50621 4.07754 4.54511 4.05509L11.3217 0.145925C11.6592 -0.0487992 12.0748 -0.0484359 12.412 0.14578L19.1888 4.05538C19.4824 4.22503 19.6779 4.51884 19.7234 4.84891L19.7406 4.84207C20.0043 4.74129 20.2981 4.74681 20.5585 4.85805C20.598 4.87462 20.6372 4.89445 20.675 4.91618L27.4518 8.82571C27.7893 9.02043 27.9968 9.37958 27.9968 9.76896L27.997 17.5877C27.997 17.6313 27.9945 17.674 27.9891 17.7165C27.9553 17.9975 27.8139 18.2546 27.5946 18.4324L27.5917 18.435L27.5826 18.4424L27.5793 18.445C27.5403 18.4145 27.4987 18.3861 27.4548 18.3611L20.6781 14.4515C20.6389 14.4291 20.5992 14.4095 20.5582 14.3922C20.2977 14.2816 20.0043 14.2768 19.7406 14.3786L19.7295 14.383L19.7176 14.3877C19.6735 14.4058 19.6299 14.4274 19.5877 14.4516L12.8111 18.3608C12.769 18.3851 12.7286 18.4121 12.6909 18.4412L12.6826 18.446C12.4595 18.2722 12.3128 18.0184 12.2738 17.7385L12.2821 17.7338C12.3262 17.7157 12.3698 17.6941 12.4119 17.6698L19.1885 13.7607C19.2306 13.7364 19.2711 13.7094 19.3088 13.6803L19.315 13.6754C19.3198 13.6717 19.3245 13.668 19.3288 13.664C19.5489 13.4868 19.6912 13.2302 19.7252 12.9496C19.7309 12.906 19.7337 12.8619 19.7337 12.8173L19.7334 4.99865C19.7337 4.94824 19.7303 4.89786 19.7234 4.84891C19.6762 4.86777 19.6297 4.89043 19.585 4.91624L12.8084 8.82541Z" fill="white"/>
<path d="M19.7406 32C19.6886 31.9798 19.6375 31.9559 19.5879 31.9275L12.8111 28.0318C12.4737 27.8378 12.266 27.4799 12.2661 27.0919L12.2658 19.3011C12.2661 18.9651 12.4222 18.6508 12.6836 18.4468C12.7227 18.4772 12.7642 18.5054 12.808 18.5304L19.5849 22.4261C19.6353 22.455 19.6873 22.4795 19.7407 22.4993L19.7406 32Z" fill="white"/>
<path d="M20.6782 31.9386L27.4547 28.0334C27.7923 27.8394 27.9998 27.4809 28 27.0933L27.9998 19.3013C27.9996 18.9636 27.8427 18.6486 27.5793 18.445C27.5393 18.4763 27.4966 18.5049 27.4517 18.5307L20.6751 22.4264C20.637 22.4483 20.5978 22.4678 20.5584 22.4847L20.5585 31.9981C20.5994 31.9809 20.6392 31.961 20.6782 31.9386Z" fill="white"/>
<path d="M11.3221 17.6699C11.6145 17.8383 11.9658 17.8609 12.274 17.7371C12.2672 17.6881 12.2634 17.6379 12.2636 17.5874L12.2634 9.76875C12.2633 9.71055 12.2682 9.65271 12.2776 9.59648L4.01345 4.82929C4.00458 4.88465 4.00007 4.94125 4 4.99843L4.00029 12.8171C4.00029 13.2064 4.20783 13.5657 4.54533 13.7604L11.3221 17.6699Z" fill="white"/>
</svg>
]]>
 <g id="Notes">
  <rect height="2200" id="artboard" style="fill:white;opacity:1" width="3300" x="0" y="0"/>
  <line id="" style="fill:none;stroke:black;opacity:1;stroke-width:0.5;" x1="263" x2="3036" y1="292" y2="292"/>
  <text id="reftext1" style="stroke:none;fill:black;font-family:-apple-system,&quot;SF Pro Display&quot;,&quot;SF Pro Text&quot;,Helvetica,sans-serif;font-weight:bold;" transform="matrix(1 0 0 1 263 322)">Weight/Scale Variations</text>
  <text id="reftext2" style="stroke:none;fill:black;font-family:-apple-system,&quot;SF Pro Display&quot;,&quot;SF Pro Text&quot;,Helvetica,sans-serif;text-anchor:middle;" transform="matrix(1 0 0 1 559.711 322)">Ultralight</text>
  <text style="stroke:none;fill:black;font-family:-apple-system,&quot;SF Pro Display&quot;,&quot;SF Pro Text&quot;,Helvetica,sans-serif;text-anchor:middle;" transform="matrix(1 0 0 1 856.422 322)">Thin</text>
  <text style="stroke:none;fill:black;font-family:-apple-system,&quot;SF Pro Display&quot;,&quot;SF Pro Text&quot;,Helvetica,sans-serif;text-anchor:middle;" transform="matrix(1 0 0 1 1153.13 322)">Light</text>
  <text style="stroke:none;fill:black;font-family:-apple-system,&quot;SF Pro Display&quot;,&quot;SF Pro Text&quot;,Helvetica,sans-serif;text-anchor:middle;" transform="matrix(1 0 0 1 1449.84 322)">Regular</text>
  <text style="stroke:none;fill:black;font-family:-apple-system,&quot;SF Pro Display&quot;,&quot;SF Pro Text&quot;,Helvetica,sans-serif;text-anchor:middle;" transform="matrix(1 0 0 1 1746.56 322)">Medium</text>
  <text style="stroke:none;fill:black;font-family:-apple-system,&quot;SF Pro Display&quot;,&quot;SF Pro Text&quot;,Helvetica,sans-serif;text-anchor:middle;" transform="matrix(1 0 0 1 2043.27 322)">Semibold</text>
  <text style="stroke:none;fill:black;font-family:-apple-system,&quot;SF Pro Display&quot;,&quot;SF Pro Text&quot;,Helvetica,sans-serif;text-anchor:middle;" transform="matrix(1 0 0 1 2339.98 322)">Bold</text>
  <text style="stroke:none;fill:black;font-family:-apple-system,&quot;SF Pro Display&quot;,&quot;SF Pro Text&quot;,Helvetica,sans-serif;text-anchor:middle;" transform="matrix(1 0 0 1 2636.69 322)">Heavy</text>
  <text style="stroke:none;fill:black;font-family:-apple-system,&quot;SF Pro Display&quot;,&quot;SF Pro Text&quot;,Helvetica,sans-serif;text-anchor:middle;" transform="matrix(1 0 0 1 2933.4 322)">Black</text>
  <line id="" style="fill:none;stroke:black;opacity:1;stroke-width:0.5;" x1="263" x2="3036" y1="1903" y2="1903"/>
  <g id="" transform="matrix(1 0 0 1 263 1933)">
   <path d="M9.24805 0.830078C13.5547 0.830078 17.1387-2.74414 17.1387-7.05078C17.1387-11.3574 13.5449-14.9316 9.23828-14.9316C4.94141-14.9316 1.36719-11.3574 1.36719-7.05078C1.36719-2.74414 4.95117 0.830078 9.24805 0.830078ZM9.24805-0.654297C5.70312-0.654297 2.87109-3.49609 2.87109-7.05078C2.87109-10.6055 5.69336-13.4473 9.23828-13.4473C12.793-13.4473 15.6348-10.6055 15.6445-7.05078C15.6543-3.49609 12.8027-0.654297 9.24805-0.654297ZM6.39648-6.31836L8.50586-6.31836L8.50586-4.19922C8.50586-3.75977 8.79883-3.45703 9.22852-3.45703C9.67773-3.45703 9.9707-3.75977 9.9707-4.19922L9.9707-6.31836L12.0996-6.31836C12.5391-6.31836 12.8418-6.61133 12.8418-7.04102C12.8418-7.48047 12.5391-7.7832 12.0996-7.7832L9.9707-7.7832L9.9707-9.89258C9.9707-10.3418 9.67773-10.6445 9.22852-10.6445C8.79883-10.6445 8.50586-10.3418 8.50586-9.89258L8.50586-7.7832L6.39648-7.7832C5.94727-7.7832 5.64453-7.48047 5.64453-7.04102C5.64453-6.61133 5.94727-6.31836 6.39648-6.31836Z"/>
  </g>
  <g id="" transform="matrix(1 0 0 1 281.506 1933)">
   <path d="M11.709 2.91016C17.1582 2.91016 21.6699-1.61133 21.6699-7.05078C21.6699-12.5 17.1484-17.0117 11.6992-17.0117C6.25977-17.0117 1.74805-12.5 1.74805-7.05078C1.74805-1.61133 6.26953 2.91016 11.709 2.91016ZM11.709 1.25C7.09961 1.25 3.41797-2.44141 3.41797-7.05078C3.41797-11.6602 7.08984-15.3516 11.6992-15.3516C16.3086-15.3516 20-11.6602 20.0098-7.05078C20.0195-2.44141 16.3184 1.25 11.709 1.25ZM7.98828-6.23047L10.8789-6.23047L10.8789-3.32031C10.8789-2.83203 11.2109-2.5 11.6895-2.5C12.1777-2.5 12.5195-2.83203 12.5195-3.32031L12.5195-6.23047L15.4297-6.23047C15.918-6.23047 16.25-6.5625 16.25-7.04102C16.25-7.5293 15.918-7.87109 15.4297-7.87109L12.5195-7.87109L12.5195-10.7617C12.5195-11.2695 12.1777-11.6016 11.6895-11.6016C11.2109-11.6016 10.8789-11.2598 10.8789-10.7617L10.8789-7.87109L7.98828-7.87109C7.48047-7.87109 7.14844-7.5293 7.14844-7.04102C7.14844-6.5625 7.49023-6.23047 7.98828-6.23047Z"/>
  </g>
  <g id="" transform="matrix(1 0 0 1 304.924 1933)">
   <path d="M14.9707 5.66406C21.9336 5.66406 27.6953-0.0976562 27.6953-7.05078C27.6953-14.0137 21.9238-19.7754 14.9609-19.7754C8.00781-19.7754 2.25586-14.0137 2.25586-7.05078C2.25586-0.0976562 8.01758 5.66406 14.9707 5.66406ZM14.9707 3.84766C8.93555 3.84766 4.08203-1.01562 4.08203-7.05078C4.08203-13.0957 8.92578-17.9492 14.9609-17.9492C21.0059-17.9492 25.8594-13.0957 25.8691-7.05078C25.8789-1.01562 21.0156 3.84766 14.9707 3.84766ZM10.0586-6.14258L14.0625-6.14258L14.0625-2.12891C14.0625-1.5918 14.4336-1.2207 14.9512-1.2207C15.4883-1.2207 15.8594-1.5918 15.8594-2.12891L15.8594-6.14258L19.8828-6.14258C20.4102-6.14258 20.791-6.51367 20.791-7.03125C20.791-7.56836 20.4199-7.94922 19.8828-7.94922L15.8594-7.94922L15.8594-11.9531C15.8594-12.5098 15.4883-12.8809 14.9512-12.8809C14.4336-12.8809 14.0625-12.5 14.0625-11.9531L14.0625-7.94922L10.0586-7.94922C9.50195-7.94922 9.13086-7.56836 9.13086-7.03125C9.13086-6.51367 9.51172-6.14258 10.0586-6.14258Z"/>
  </g>
  <text style="stroke:none;fill:black;font-family:-apple-system,&quot;SF Pro Display&quot;,&quot;SF Pro Text&quot;,Helvetica,sans-serif;font-weight:bold;" transform="matrix(1 0 0 1 263 1953)">Design Variations</text>
  <text style="stroke:none;fill:black;font-family:-apple-system,&quot;SF Pro Display&quot;,&quot;SF Pro Text&quot;,Helvetica,sans-serif;" transform="matrix(1 0 0 1 263 1971)">Symbols are supported in up to nine weights and three scales.</text>
  <text style="stroke:none;fill:black;font-family:-apple-system,&quot;SF Pro Display&quot;,&quot;SF Pro Text&quot;,Helvetica,sans-serif;" transform="matrix(1 0 0 1 263 1989)">For optimal layout with text and other symbols, vertically align</text>
  <text style="stroke:none;fill:black;font-family:-apple-system,&quot;SF Pro Display&quot;,&quot;SF Pro Text&quot;,Helvetica,sans-serif;" transform="matrix(1 0 0 1 263 2007)">symbols with the adjacent text.</text>
  <line id="" style="fill:none;stroke:#00AEEF;stroke-width:0.5;opacity:1.0;" x1="776" x2="776" y1="1919" y2="1933"/>
  <g id="" transform="matrix(1 0 0 1 776 1933)">
   <path d="M3.31055 0.126953C3.82812 0.126953 4.08203-0.0683594 4.26758-0.605469L5.52734-4.0625L11.2891-4.0625L12.5488-0.605469C12.7344-0.0683594 12.9883 0.126953 13.4961 0.126953C14.0137 0.126953 14.3457-0.185547 14.3457-0.673828C14.3457-0.839844 14.3164-0.986328 14.2383-1.20117L9.6582-13.3887C9.43359-13.9941 9.0332-14.2871 8.4082-14.2871C7.80273-14.2871 7.39258-13.9941 7.17773-13.3984L2.59766-1.19141C2.51953-0.976562 2.49023-0.830078 2.49023-0.664062C2.49023-0.175781 2.80273 0.126953 3.31055 0.126953ZM6.00586-5.53711L8.37891-12.1094L8.42773-12.1094L10.8008-5.53711Z"/>
  </g>
  <line id="" style="fill:none;stroke:#00AEEF;stroke-width:0.5;opacity:1.0;" x1="792.836" x2="792.836" y1="1919" y2="1933"/>
  <text style="stroke:none;fill:black;font-family:-apple-system,&quot;SF Pro Display&quot;,&quot;SF Pro Text&quot;,Helvetica,sans-serif;font-weight:bold;" transform="matrix(1 0 0 1 776 1953)">Margins</text>
  <text style="stroke:none;fill:black;font-family:-apple-system,&quot;SF Pro Display&quot;,&quot;SF Pro Text&quot;,Helvetica,sans-serif;" transform="matrix(1 0 0 1 776 1971)">Leading and trailing margins on the left and right side of each symbol</text>
  <text style="stroke:none;fill:black;font-family:-apple-system,&quot;SF Pro Display&quot;,&quot;SF Pro Text&quot;,Helvetica,sans-serif;" transform="matrix(1 0 0 1 776 1989)">can be adjusted by modifying the x-location of the margin guidelines.</text>
  <text style="stroke:none;fill:black;font-family:-apple-system,&quot;SF Pro Display&quot;,&quot;SF Pro Text&quot;,Helvetica,sans-serif;" transform="matrix(1 0 0 1 776 2007)">Modifications are automatically applied proportionally to all</text>
  <text style="stroke:none;fill:black;font-family:-apple-system,&quot;SF Pro Display&quot;,&quot;SF Pro Text&quot;,Helvetica,sans-serif;" transform="matrix(1 0 0 1 776 2025)">scales and weights.</text>
  <g id="" transform="matrix(1 0 0 1 1289 1933)">
   <path d="M2.8418 1.86523L4.54102 3.57422C5.40039 4.44336 6.38672 4.38477 7.31445 3.35938L17.4902-7.85156C17.7539-7.76367 18.0273-7.7832 18.3398-7.8418L19.4043-8.03711L20.0684-7.36328L20.0293-6.80664C19.9902-6.30859 20.1172-5.92773 20.6055-5.44922L21.3672-4.70703C21.8457-4.22852 22.4609-4.19922 22.9297-4.66797L25.8398-7.58789C26.3086-8.05664 26.2891-8.65234 25.8105-9.13086L25.0391-9.89258C24.5605-10.3711 24.1895-10.5273 23.7109-10.4883L23.1348-10.4395L22.4902-11.0742L22.7344-12.1973C22.8613-12.7637 22.7051-13.2031 22.1191-13.7891L19.9219-15.9766C16.582-19.2969 12.1484-19.2188 9.25781-16.3281C8.83789-15.918 8.80859-15.3418 9.04297-14.9512C9.27734-14.5898 9.73633-14.3555 10.3809-14.5215C11.8457-14.8633 13.3691-14.9219 14.7949-13.9844L14.209-12.5293C14.0137-12.0508 13.9844-11.6504 14.1113-11.2891L3.04688-0.898438C2.06055 0.0195312 1.98242 0.996094 2.8418 1.86523ZM10.752-15.957C13.1836-17.7344 16.4746-17.4316 18.7012-15.2051L21.1328-12.793C21.3672-12.5586 21.4062-12.373 21.3379-12.0312L21.0156-10.5469L22.5195-9.0625L23.5059-9.12109C23.7598-9.13086 23.8379-9.11133 24.0332-8.91602L24.6094-8.33984L22.168-5.89844L21.5918-6.47461C21.3965-6.66992 21.3672-6.74805 21.377-7.01172L21.4453-7.98828L19.9512-9.47266L18.4277-9.21875C18.1055-9.15039 17.959-9.17969 17.7148-9.41406L15.7129-11.416C15.459-11.6504 15.4297-11.8164 15.5859-12.1875L16.4648-14.2773C14.9023-15.7324 12.8711-16.3574 10.8398-15.7617C10.6836-15.7227 10.625-15.8496 10.752-15.957ZM5.27344 2.30469L4.10156 1.14258C3.63281 0.683594 3.74023 0.341797 4.14062-0.0195312L14.9512-10.1953L16.416-8.71094L6.42578 2.27539C6.07422 2.67578 5.74219 2.77344 5.27344 2.30469Z"/>
  </g>
  <text style="stroke:none;fill:black;font-family:-apple-system,&quot;SF Pro Display&quot;,&quot;SF Pro Text&quot;,Helvetica,sans-serif;font-weight:bold;" transform="matrix(1 0 0 1 1289 1953)">Exporting</text>
  <text style="stroke:none;fill:black;font-family:-apple-system,&quot;SF Pro Display&quot;,&quot;SF Pro Text&quot;,Helvetica,sans-serif;" transform="matrix(1 0 0 1 1289 1971)">Symbols should be outlined when exporting to ensure the</text>
  <text style="stroke:none;fill:black;font-family:-apple-system,&quot;SF Pro Display&quot;,&quot;SF Pro Text&quot;,Helvetica,sans-serif;" transform="matrix(1 0 0 1 1289 1989)">design is preserved when submitting to Xcode.</text>
  <text id="template-version" style="stroke:none;fill:black;font-family:-apple-system,&quot;SF Pro Display&quot;,&quot;SF Pro Text&quot;,Helvetica,sans-serif;text-anchor:end;" transform="matrix(1 0 0 1 3036 1933)">Template v.2.0</text>
  <text style="stroke:none;fill:black;font-family:-apple-system,&quot;SF Pro Display&quot;,&quot;SF Pro Text&quot;,Helvetica,sans-serif;text-anchor:end;" transform="matrix(1 0 0 1 3036 1951)">Requires Xcode 12 or greater</text>
  <text style="stroke:none;fill:black;font-family:-apple-system,&quot;SF Pro Display&quot;,&quot;SF Pro Text&quot;,Helvetica,sans-serif;" transform="matrix(1 0 0 1 263 726)">Small</text>
  <text style="stroke:none;fill:black;font-family:-apple-system,&quot;SF Pro Display&quot;,&quot;SF Pro Text&quot;,Helvetica,sans-serif;" transform="matrix(1 0 0 1 263 1156)">Medium</text>
  <text style="stroke:none;fill:black;font-family:-apple-system,&quot;SF Pro Display&quot;,&quot;SF Pro Text&quot;,Helvetica,sans-serif;" transform="matrix(1 0 0 1 263 1586)">Large</text>
 </g>
 <g id="Guides">
  <g id="H-reference" style="fill:#27AAE1;stroke:none;" transform="matrix(1 0 0 1 339 696)">
   <path d="M0.976562 0L3.66211 0L12.9883-24.4629L45.752-24.4629L55.127 0L57.7637 0L30.6152-70.459L28.125-70.459ZM29.3457-67.1387L29.4434-67.1387L44.873-26.709L13.8672-26.709Z"/>
  </g>
  <line id="Baseline-S" style="fill:none;stroke:#27AAE1;opacity:1;stroke-width:0.5;" x1="263" x2="3036" y1="696" y2="696"/>
  <line id="Capline-S" style="fill:none;stroke:#27AAE1;opacity:1;stroke-width:0.5;" x1="263" x2="3036" y1="625.541" y2="625.541"/>
  <g id="H-reference" style="fill:#27AAE1;stroke:none;" transform="matrix(1 0 0 1 339 1126)">
   <path d="M0.976562 0L3.66211 0L12.9883-24.4629L45.752-24.4629L55.127 0L57.7637 0L30.6152-70.459L28.125-70.459ZM29.3457-67.1387L29.4434-67.1387L44.873-26.709L13.8672-26.709Z"/>
  </g>
  <line id="Baseline-M" style="fill:none;stroke:#27AAE1;opacity:1;stroke-width:0.5;" x1="263" x2="3036" y1="1126" y2="1126"/>
  <line id="Capline-M" style="fill:none;stroke:#27AAE1;opacity:1;stroke-width:0.5;" x1="263" x2="3036" y1="1055.54" y2="1055.54"/>
  <g id="H-reference" style="fill:#27AAE1;stroke:none;" transform="matrix(1 0 0 1 339 1556)">
   <path d="M0.976562 0L3.66211 0L12.9883-24.4629L45.752-24.4629L55.127 0L57.7637 0L30.6152-70.459L28.125-70.459ZM29.3457-67.1387L29.4434-67.1387L44.873-26.709L13.8672-26.709Z"/>
  </g>
  <line id="Baseline-L" style="fill:none;stroke:#27AAE1;opacity:1;stroke-width:0.5;" x1="263" x2="3036" y1="1556" y2="1556"/>
  <line id="Capline-L" style="fill:none;stroke:#27AAE1;opacity:1;stroke-width:0.5;" x1="263" x2="3036" y1="1485.54" y2="1485.54"/>
  <line id="left-margin" x1="1415.9000195312499" x2="1415.9000195312499" y1="1030.79" y2="1150.12" style="fill:none;stroke:#00AEEF;stroke-width:0.5;opacity:1.0;"/>
  <line id="right-margin" x1="1486.3599804687499" x2="1486.3599804687499" y1="1030.79" y2="1150.12" style="fill:none;stroke:#00AEEF;stroke-width:0.5;opacity:1.0;"/>
 </g>
 <g id="Symbols">
  <g id="Black-L" transform="matrix(1.0,0.0,0.0,1.0,2889.2333251953123,1475.3233447265625)">  <path stroke-dasharray="none" fill-opacity="1" fill="#000000" stroke-linejoin="miter" fill-rule="nonzero" stroke-opacity="1" stroke-linecap="butt" stroke="none" stroke-miterlimit="4" stroke-width="1px" d="M36.381,25.068C36.274,25.13,36.172,25.198,36.074,25.27L12.594,11.727C12.694,11.652,12.8,11.582,12.91,11.518L32.158,0.414C33.117,-0.139,34.297,-0.138,35.255,0.414L54.504,11.519C55.338,12.001,55.893,12.835,56.023,13.773L56.072,13.753C56.821,13.467,57.655,13.483,58.395,13.799C58.507,13.846,58.618,13.902,58.726,13.964L77.975,25.069C78.933,25.622,79.523,26.642,79.523,27.748L79.523,49.956C79.523,50.08,79.516,50.202,79.501,50.322C79.405,51.12,79.003,51.851,78.38,52.356L78.372,52.363L78.346,52.384L78.337,52.391C78.226,52.305,78.108,52.224,77.983,52.153L58.734,41.048C58.623,40.985,58.51,40.929,58.394,40.88C57.654,40.566,56.821,40.552,56.072,40.841L56.04,40.854L56.006,40.867C55.881,40.918,55.757,40.98,55.637,41.049L36.389,52.152C36.269,52.221,36.155,52.298,36.047,52.381L36.024,52.394C35.39,51.901,34.973,51.18,34.863,50.385L34.886,50.371C35.012,50.32,35.135,50.259,35.255,50.19L54.503,39.086C54.623,39.017,54.738,38.94,54.845,38.858L54.863,38.844C54.876,38.833,54.89,38.823,54.902,38.811C55.527,38.308,55.931,37.579,56.028,36.782C56.044,36.658,56.052,36.533,56.052,36.406L56.051,14.198C56.052,14.055,56.042,13.912,56.023,13.773C55.889,13.826,55.757,13.891,55.63,13.964L36.381,25.068ZM36.381,25.068"/>
  <path stroke-opacity="1" stroke="none" stroke-miterlimit="4" fill-opacity="1" stroke-linecap="butt" fill-rule="nonzero" stroke-dasharray="none" stroke-width="1px" stroke-linejoin="miter" fill="#000000" d="M56.072,90.893C55.924,90.836,55.779,90.768,55.638,90.687L36.389,79.622C35.431,79.071,34.841,78.054,34.841,76.952L34.84,54.823C34.841,53.869,35.284,52.976,36.027,52.397C36.138,52.483,36.256,52.563,36.38,52.634L55.629,63.699C55.772,63.782,55.92,63.851,56.072,63.907L56.072,90.893ZM56.072,90.893"/>
  <path fill-opacity="1" stroke-miterlimit="4" fill-rule="nonzero" stroke-linejoin="miter" stroke-opacity="1" stroke-width="1px" stroke-dasharray="none" fill="#000000" stroke-linecap="butt" stroke="none" d="M58.735,90.719L77.983,79.627C78.942,79.076,79.531,78.057,79.532,76.956L79.531,54.824C79.531,53.865,79.085,52.97,78.337,52.391C78.223,52.48,78.102,52.562,77.974,52.635L58.726,63.7C58.618,63.763,58.506,63.818,58.394,63.866L58.395,90.888C58.511,90.839,58.624,90.783,58.735,90.719ZM58.735,90.719"/>
  <path stroke-dasharray="none" stroke-linejoin="miter" stroke-width="1px" stroke-linecap="butt" fill-opacity="1" stroke="none" stroke-miterlimit="4" fill="#000000" stroke-opacity="1" fill-rule="nonzero" d="M32.159,50.19C32.99,50.668,33.988,50.732,34.863,50.381C34.844,50.242,34.833,50.099,34.834,49.956L34.833,27.747C34.833,27.582,34.847,27.418,34.874,27.258L11.4,13.717C11.375,13.874,11.362,14.035,11.362,14.198L11.362,36.406C11.362,37.512,11.952,38.532,12.911,39.085L32.159,50.19ZM32.159,50.19"/>
</g>
  <g id="Heavy-L" transform="matrix(1.0,0.0,0.0,1.0,2592.5233251953123,1475.3233447265625)">  <path stroke-linejoin="miter" stroke-dasharray="none" stroke-linecap="butt" fill-opacity="1" stroke-width="1px" stroke="none" stroke-opacity="1" fill-rule="nonzero" fill="#000000" stroke-miterlimit="4" d="M36.381,25.068C36.274,25.13,36.172,25.198,36.074,25.27L12.594,11.727C12.694,11.652,12.8,11.582,12.91,11.518L32.158,0.414C33.117,-0.139,34.297,-0.138,35.255,0.414L54.504,11.519C55.338,12.001,55.893,12.835,56.023,13.773L56.072,13.753C56.821,13.467,57.655,13.483,58.395,13.799C58.507,13.846,58.618,13.902,58.726,13.964L77.975,25.069C78.933,25.622,79.523,26.642,79.523,27.748L79.523,49.956C79.523,50.08,79.516,50.202,79.501,50.322C79.405,51.12,79.003,51.851,78.38,52.356L78.372,52.363L78.346,52.384L78.337,52.391C78.226,52.305,78.108,52.224,77.983,52.153L58.734,41.048C58.623,40.985,58.51,40.929,58.394,40.88C57.654,40.566,56.821,40.552,56.072,40.841L56.04,40.854L56.006,40.867C55.881,40.918,55.757,40.98,55.637,41.049L36.389,52.152C36.269,52.221,36.155,52.298,36.047,52.381L36.024,52.394C35.39,51.901,34.973,51.18,34.863,50.385L34.886,50.371C35.012,50.32,35.135,50.259,35.255,50.19L54.503,39.086C54.623,39.017,54.738,38.94,54.845,38.858L54.863,38.844C54.876,38.833,54.89,38.823,54.902,38.811C55.527,38.308,55.931,37.579,56.028,36.782C56.044,36.658,56.052,36.533,56.052,36.406L56.051,14.198C56.052,14.055,56.042,13.912,56.023,13.773C55.889,13.826,55.757,13.891,55.63,13.964L36.381,25.068ZM36.381,25.068"/>
  <path stroke-linejoin="miter" fill-rule="nonzero" fill="#000000" stroke-width="1px" stroke-miterlimit="4" stroke-linecap="butt" stroke-opacity="1" fill-opacity="1" stroke="none" stroke-dasharray="none" d="M56.072,90.893C55.924,90.836,55.779,90.768,55.638,90.687L36.389,79.622C35.431,79.071,34.841,78.054,34.841,76.952L34.84,54.823C34.841,53.869,35.284,52.976,36.027,52.397C36.138,52.483,36.256,52.563,36.38,52.634L55.629,63.699C55.772,63.782,55.92,63.851,56.072,63.907L56.072,90.893ZM56.072,90.893"/>
  <path fill="#000000" stroke-dasharray="none" fill-rule="nonzero" stroke-linecap="butt" stroke-miterlimit="4" fill-opacity="1" stroke-linejoin="miter" stroke-opacity="1" stroke-width="1px" stroke="none" d="M58.735,90.719L77.983,79.627C78.942,79.076,79.531,78.057,79.532,76.956L79.531,54.824C79.531,53.865,79.085,52.97,78.337,52.391C78.223,52.48,78.102,52.562,77.974,52.635L58.726,63.7C58.618,63.763,58.506,63.818,58.394,63.866L58.395,90.888C58.511,90.839,58.624,90.783,58.735,90.719ZM58.735,90.719"/>
  <path stroke-linecap="butt" fill="#000000" stroke-linejoin="miter" fill-opacity="1" stroke-miterlimit="4" stroke-dasharray="none" stroke-opacity="1" stroke="none" fill-rule="nonzero" stroke-width="1px" d="M32.159,50.19C32.99,50.668,33.988,50.732,34.863,50.381C34.844,50.242,34.833,50.099,34.834,49.956L34.833,27.747C34.833,27.582,34.847,27.418,34.874,27.258L11.4,13.717C11.375,13.874,11.362,14.035,11.362,14.198L11.362,36.406C11.362,37.512,11.952,38.532,12.911,39.085L32.159,50.19ZM32.159,50.19"/>
</g>
  <g id="Bold-L" transform="matrix(1.0,0.0,0.0,1.0,2295.8133251953122,1475.3233447265625)">  <path stroke-dasharray="none" stroke-linecap="butt" fill-rule="nonzero" stroke-width="1px" stroke-opacity="1" fill-opacity="1" stroke-linejoin="miter" stroke-miterlimit="4" fill="#000000" stroke="none" d="M36.381,25.068C36.274,25.13,36.172,25.198,36.074,25.27L12.594,11.727C12.694,11.652,12.8,11.582,12.91,11.518L32.158,0.414C33.117,-0.139,34.297,-0.138,35.255,0.414L54.504,11.519C55.338,12.001,55.893,12.835,56.023,13.773L56.072,13.753C56.821,13.467,57.655,13.483,58.395,13.799C58.507,13.846,58.618,13.902,58.726,13.964L77.975,25.069C78.933,25.622,79.523,26.642,79.523,27.748L79.523,49.956C79.523,50.08,79.516,50.202,79.501,50.322C79.405,51.12,79.003,51.851,78.38,52.356L78.372,52.363L78.346,52.384L78.337,52.391C78.226,52.305,78.108,52.224,77.983,52.153L58.734,41.048C58.623,40.985,58.51,40.929,58.394,40.88C57.654,40.566,56.821,40.552,56.072,40.841L56.04,40.854L56.006,40.867C55.881,40.918,55.757,40.98,55.637,41.049L36.389,52.152C36.269,52.221,36.155,52.298,36.047,52.381L36.024,52.394C35.39,51.901,34.973,51.18,34.863,50.385L34.886,50.371C35.012,50.32,35.135,50.259,35.255,50.19L54.503,39.086C54.623,39.017,54.738,38.94,54.845,38.858L54.863,38.844C54.876,38.833,54.89,38.823,54.902,38.811C55.527,38.308,55.931,37.579,56.028,36.782C56.044,36.658,56.052,36.533,56.052,36.406L56.051,14.198C56.052,14.055,56.042,13.912,56.023,13.773C55.889,13.826,55.757,13.891,55.63,13.964L36.381,25.068ZM36.381,25.068"/>
  <path stroke-linecap="butt" fill="#000000" stroke-dasharray="none" stroke-linejoin="miter" fill-rule="nonzero" fill-opacity="1" stroke-miterlimit="4" stroke="none" stroke-width="1px" stroke-opacity="1" d="M56.072,90.893C55.924,90.836,55.779,90.768,55.638,90.687L36.389,79.622C35.431,79.071,34.841,78.054,34.841,76.952L34.84,54.823C34.841,53.869,35.284,52.976,36.027,52.397C36.138,52.483,36.256,52.563,36.38,52.634L55.629,63.699C55.772,63.782,55.92,63.851,56.072,63.907L56.072,90.893ZM56.072,90.893"/>
  <path stroke-miterlimit="4" stroke-linecap="butt" fill="#000000" fill-opacity="1" stroke-linejoin="miter" stroke-dasharray="none" stroke="none" stroke-opacity="1" stroke-width="1px" fill-rule="nonzero" d="M58.735,90.719L77.983,79.627C78.942,79.076,79.531,78.057,79.532,76.956L79.531,54.824C79.531,53.865,79.085,52.97,78.337,52.391C78.223,52.48,78.102,52.562,77.974,52.635L58.726,63.7C58.618,63.763,58.506,63.818,58.394,63.866L58.395,90.888C58.511,90.839,58.624,90.783,58.735,90.719ZM58.735,90.719"/>
  <path stroke-width="1px" fill-opacity="1" fill="#000000" stroke-dasharray="none" stroke-linejoin="miter" stroke-opacity="1" fill-rule="nonzero" stroke-miterlimit="4" stroke="none" stroke-linecap="butt" d="M32.159,50.19C32.99,50.668,33.988,50.732,34.863,50.381C34.844,50.242,34.833,50.099,34.834,49.956L34.833,27.747C34.833,27.582,34.847,27.418,34.874,27.258L11.4,13.717C11.375,13.874,11.362,14.035,11.362,14.198L11.362,36.406C11.362,37.512,11.952,38.532,12.911,39.085L32.159,50.19ZM32.159,50.19"/>
</g>
  <g id="Semibold-L" transform="matrix(1.0,0.0,0.0,1.0,1999.1033251953124,1475.3233447265625)">  <path fill-opacity="1" stroke="none" stroke-opacity="1" stroke-miterlimit="4" stroke-linecap="butt" stroke-dasharray="none" stroke-linejoin="miter" fill="#000000" stroke-width="1px" fill-rule="nonzero" d="M36.381,25.068C36.274,25.13,36.172,25.198,36.074,25.27L12.594,11.727C12.694,11.652,12.8,11.582,12.91,11.518L32.158,0.414C33.117,-0.139,34.297,-0.138,35.255,0.414L54.504,11.519C55.338,12.001,55.893,12.835,56.023,13.773L56.072,13.753C56.821,13.467,57.655,13.483,58.395,13.799C58.507,13.846,58.618,13.902,58.726,13.964L77.975,25.069C78.933,25.622,79.523,26.642,79.523,27.748L79.523,49.956C79.523,50.08,79.516,50.202,79.501,50.322C79.405,51.12,79.003,51.851,78.38,52.356L78.372,52.363L78.346,52.384L78.337,52.391C78.226,52.305,78.108,52.224,77.983,52.153L58.734,41.048C58.623,40.985,58.51,40.929,58.394,40.88C57.654,40.566,56.821,40.552,56.072,40.841L56.04,40.854L56.006,40.867C55.881,40.918,55.757,40.98,55.637,41.049L36.389,52.152C36.269,52.221,36.155,52.298,36.047,52.381L36.024,52.394C35.39,51.901,34.973,51.18,34.863,50.385L34.886,50.371C35.012,50.32,35.135,50.259,35.255,50.19L54.503,39.086C54.623,39.017,54.738,38.94,54.845,38.858L54.863,38.844C54.876,38.833,54.89,38.823,54.902,38.811C55.527,38.308,55.931,37.579,56.028,36.782C56.044,36.658,56.052,36.533,56.052,36.406L56.051,14.198C56.052,14.055,56.042,13.912,56.023,13.773C55.889,13.826,55.757,13.891,55.63,13.964L36.381,25.068ZM36.381,25.068"/>
  <path fill="#000000" stroke-miterlimit="4" stroke-width="1px" stroke-opacity="1" fill-opacity="1" fill-rule="nonzero" stroke-linecap="butt" stroke-linejoin="miter" stroke="none" stroke-dasharray="none" d="M56.072,90.893C55.924,90.836,55.779,90.768,55.638,90.687L36.389,79.622C35.431,79.071,34.841,78.054,34.841,76.952L34.84,54.823C34.841,53.869,35.284,52.976,36.027,52.397C36.138,52.483,36.256,52.563,36.38,52.634L55.629,63.699C55.772,63.782,55.92,63.851,56.072,63.907L56.072,90.893ZM56.072,90.893"/>
  <path stroke-opacity="1" stroke-dasharray="none" fill-rule="nonzero" stroke-width="1px" fill="#000000" stroke-miterlimit="4" fill-opacity="1" stroke-linecap="butt" stroke-linejoin="miter" stroke="none" d="M58.735,90.719L77.983,79.627C78.942,79.076,79.531,78.057,79.532,76.956L79.531,54.824C79.531,53.865,79.085,52.97,78.337,52.391C78.223,52.48,78.102,52.562,77.974,52.635L58.726,63.7C58.618,63.763,58.506,63.818,58.394,63.866L58.395,90.888C58.511,90.839,58.624,90.783,58.735,90.719ZM58.735,90.719"/>
  <path stroke-dasharray="none" stroke="none" stroke-linejoin="miter" stroke-linecap="butt" fill="#000000" stroke-opacity="1" stroke-miterlimit="4" fill-opacity="1" fill-rule="nonzero" stroke-width="1px" d="M32.159,50.19C32.99,50.668,33.988,50.732,34.863,50.381C34.844,50.242,34.833,50.099,34.834,49.956L34.833,27.747C34.833,27.582,34.847,27.418,34.874,27.258L11.4,13.717C11.375,13.874,11.362,14.035,11.362,14.198L11.362,36.406C11.362,37.512,11.952,38.532,12.911,39.085L32.159,50.19ZM32.159,50.19"/>
</g>
  <g id="Medium-L" transform="matrix(1.0,0.0,0.0,1.0,1702.3933251953124,1475.3233447265625)">  <path stroke-opacity="1" stroke-dasharray="none" stroke-linecap="butt" fill-opacity="1" fill-rule="nonzero" stroke-miterlimit="4" stroke-linejoin="miter" stroke-width="1px" stroke="none" fill="#000000" d="M36.381,25.068C36.274,25.13,36.172,25.198,36.074,25.27L12.594,11.727C12.694,11.652,12.8,11.582,12.91,11.518L32.158,0.414C33.117,-0.139,34.297,-0.138,35.255,0.414L54.504,11.519C55.338,12.001,55.893,12.835,56.023,13.773L56.072,13.753C56.821,13.467,57.655,13.483,58.395,13.799C58.507,13.846,58.618,13.902,58.726,13.964L77.975,25.069C78.933,25.622,79.523,26.642,79.523,27.748L79.523,49.956C79.523,50.08,79.516,50.202,79.501,50.322C79.405,51.12,79.003,51.851,78.38,52.356L78.372,52.363L78.346,52.384L78.337,52.391C78.226,52.305,78.108,52.224,77.983,52.153L58.734,41.048C58.623,40.985,58.51,40.929,58.394,40.88C57.654,40.566,56.821,40.552,56.072,40.841L56.04,40.854L56.006,40.867C55.881,40.918,55.757,40.98,55.637,41.049L36.389,52.152C36.269,52.221,36.155,52.298,36.047,52.381L36.024,52.394C35.39,51.901,34.973,51.18,34.863,50.385L34.886,50.371C35.012,50.32,35.135,50.259,35.255,50.19L54.503,39.086C54.623,39.017,54.738,38.94,54.845,38.858L54.863,38.844C54.876,38.833,54.89,38.823,54.902,38.811C55.527,38.308,55.931,37.579,56.028,36.782C56.044,36.658,56.052,36.533,56.052,36.406L56.051,14.198C56.052,14.055,56.042,13.912,56.023,13.773C55.889,13.826,55.757,13.891,55.63,13.964L36.381,25.068ZM36.381,25.068"/>
  <path stroke-dasharray="none" stroke-width="1px" stroke-linejoin="miter" stroke-linecap="butt" fill="#000000" stroke="none" stroke-opacity="1" fill-opacity="1" fill-rule="nonzero" stroke-miterlimit="4" d="M56.072,90.893C55.924,90.836,55.779,90.768,55.638,90.687L36.389,79.622C35.431,79.071,34.841,78.054,34.841,76.952L34.84,54.823C34.841,53.869,35.284,52.976,36.027,52.397C36.138,52.483,36.256,52.563,36.38,52.634L55.629,63.699C55.772,63.782,55.92,63.851,56.072,63.907L56.072,90.893ZM56.072,90.893"/>
  <path stroke-linejoin="miter" stroke-opacity="1" stroke-width="1px" stroke-linecap="butt" stroke-dasharray="none" fill-opacity="1" fill-rule="nonzero" stroke-miterlimit="4" stroke="none" fill="#000000" d="M58.735,90.719L77.983,79.627C78.942,79.076,79.531,78.057,79.532,76.956L79.531,54.824C79.531,53.865,79.085,52.97,78.337,52.391C78.223,52.48,78.102,52.562,77.974,52.635L58.726,63.7C58.618,63.763,58.506,63.818,58.394,63.866L58.395,90.888C58.511,90.839,58.624,90.783,58.735,90.719ZM58.735,90.719"/>
  <path stroke-linejoin="miter" stroke-opacity="1" fill-opacity="1" fill-rule="nonzero" fill="#000000" stroke-width="1px" stroke-dasharray="none" stroke="none" stroke-miterlimit="4" stroke-linecap="butt" d="M32.159,50.19C32.99,50.668,33.988,50.732,34.863,50.381C34.844,50.242,34.833,50.099,34.834,49.956L34.833,27.747C34.833,27.582,34.847,27.418,34.874,27.258L11.4,13.717C11.375,13.874,11.362,14.035,11.362,14.198L11.362,36.406C11.362,37.512,11.952,38.532,12.911,39.085L32.159,50.19ZM32.159,50.19"/>
</g>
  <g id="Regular-L" transform="matrix(1.0,0.0,0.0,1.0,1405.6833251953124,1475.3233447265625)">  <path stroke-linejoin="miter" fill-opacity="1" stroke-miterlimit="4" stroke="none" stroke-dasharray="none" fill-rule="nonzero" fill="#000000" stroke-linecap="butt" stroke-width="1px" stroke-opacity="1" d="M36.381,25.068C36.274,25.13,36.172,25.198,36.074,25.27L12.594,11.727C12.694,11.652,12.8,11.582,12.91,11.518L32.158,0.414C33.117,-0.139,34.297,-0.138,35.255,0.414L54.504,11.519C55.338,12.001,55.893,12.835,56.023,13.773L56.072,13.753C56.821,13.467,57.655,13.483,58.395,13.799C58.507,13.846,58.618,13.902,58.726,13.964L77.975,25.069C78.933,25.622,79.523,26.642,79.523,27.748L79.523,49.956C79.523,50.08,79.516,50.202,79.501,50.322C79.405,51.12,79.003,51.851,78.38,52.356L78.372,52.363L78.346,52.384L78.337,52.391C78.226,52.305,78.108,52.224,77.983,52.153L58.734,41.048C58.623,40.985,58.51,40.929,58.394,40.88C57.654,40.566,56.821,40.552,56.072,40.841L56.04,40.854L56.006,40.867C55.881,40.918,55.757,40.98,55.637,41.049L36.389,52.152C36.269,52.221,36.155,52.298,36.047,52.381L36.024,52.394C35.39,51.901,34.973,51.18,34.863,50.385L34.886,50.371C35.012,50.32,35.135,50.259,35.255,50.19L54.503,39.086C54.623,39.017,54.738,38.94,54.845,38.858L54.863,38.844C54.876,38.833,54.89,38.823,54.902,38.811C55.527,38.308,55.931,37.579,56.028,36.782C56.044,36.658,56.052,36.533,56.052,36.406L56.051,14.198C56.052,14.055,56.042,13.912,56.023,13.773C55.889,13.826,55.757,13.891,55.63,13.964L36.381,25.068ZM36.381,25.068"/>
  <path stroke="none" stroke-width="1px" stroke-linecap="butt" fill="#000000" stroke-linejoin="miter" fill-opacity="1" stroke-dasharray="none" fill-rule="nonzero" stroke-opacity="1" stroke-miterlimit="4" d="M56.072,90.893C55.924,90.836,55.779,90.768,55.638,90.687L36.389,79.622C35.431,79.071,34.841,78.054,34.841,76.952L34.84,54.823C34.841,53.869,35.284,52.976,36.027,52.397C36.138,52.483,36.256,52.563,36.38,52.634L55.629,63.699C55.772,63.782,55.92,63.851,56.072,63.907L56.072,90.893ZM56.072,90.893"/>
  <path stroke-width="1px" stroke-opacity="1" stroke-linecap="butt" stroke-miterlimit="4" fill-rule="nonzero" fill-opacity="1" fill="#000000" stroke-linejoin="miter" stroke-dasharray="none" stroke="none" d="M58.735,90.719L77.983,79.627C78.942,79.076,79.531,78.057,79.532,76.956L79.531,54.824C79.531,53.865,79.085,52.97,78.337,52.391C78.223,52.48,78.102,52.562,77.974,52.635L58.726,63.7C58.618,63.763,58.506,63.818,58.394,63.866L58.395,90.888C58.511,90.839,58.624,90.783,58.735,90.719ZM58.735,90.719"/>
  <path stroke-opacity="1" stroke-linecap="butt" fill-opacity="1" fill="#000000" stroke-dasharray="none" stroke-width="1px" stroke="none" stroke-miterlimit="4" fill-rule="nonzero" stroke-linejoin="miter" d="M32.159,50.19C32.99,50.668,33.988,50.732,34.863,50.381C34.844,50.242,34.833,50.099,34.834,49.956L34.833,27.747C34.833,27.582,34.847,27.418,34.874,27.258L11.4,13.717C11.375,13.874,11.362,14.035,11.362,14.198L11.362,36.406C11.362,37.512,11.952,38.532,12.911,39.085L32.159,50.19ZM32.159,50.19"/>
</g>
  <g id="Light-L" transform="matrix(1.0,0.0,0.0,1.0,1108.9733251953126,1475.3233447265625)">  <path fill-rule="nonzero" fill-opacity="1" stroke-linejoin="miter" stroke="none" stroke-miterlimit="4" stroke-dasharray="none" fill="#000000" stroke-opacity="1" stroke-width="1px" stroke-linecap="butt" d="M36.381,25.068C36.274,25.13,36.172,25.198,36.074,25.27L12.594,11.727C12.694,11.652,12.8,11.582,12.91,11.518L32.158,0.414C33.117,-0.139,34.297,-0.138,35.255,0.414L54.504,11.519C55.338,12.001,55.893,12.835,56.023,13.773L56.072,13.753C56.821,13.467,57.655,13.483,58.395,13.799C58.507,13.846,58.618,13.902,58.726,13.964L77.975,25.069C78.933,25.622,79.523,26.642,79.523,27.748L79.523,49.956C79.523,50.08,79.516,50.202,79.501,50.322C79.405,51.12,79.003,51.851,78.38,52.356L78.372,52.363L78.346,52.384L78.337,52.391C78.226,52.305,78.108,52.224,77.983,52.153L58.734,41.048C58.623,40.985,58.51,40.929,58.394,40.88C57.654,40.566,56.821,40.552,56.072,40.841L56.04,40.854L56.006,40.867C55.881,40.918,55.757,40.98,55.637,41.049L36.389,52.152C36.269,52.221,36.155,52.298,36.047,52.381L36.024,52.394C35.39,51.901,34.973,51.18,34.863,50.385L34.886,50.371C35.012,50.32,35.135,50.259,35.255,50.19L54.503,39.086C54.623,39.017,54.738,38.94,54.845,38.858L54.863,38.844C54.876,38.833,54.89,38.823,54.902,38.811C55.527,38.308,55.931,37.579,56.028,36.782C56.044,36.658,56.052,36.533,56.052,36.406L56.051,14.198C56.052,14.055,56.042,13.912,56.023,13.773C55.889,13.826,55.757,13.891,55.63,13.964L36.381,25.068ZM36.381,25.068"/>
  <path stroke-opacity="1" fill="#000000" stroke-linecap="butt" fill-rule="nonzero" stroke-miterlimit="4" stroke-linejoin="miter" fill-opacity="1" stroke-width="1px" stroke-dasharray="none" stroke="none" d="M56.072,90.893C55.924,90.836,55.779,90.768,55.638,90.687L36.389,79.622C35.431,79.071,34.841,78.054,34.841,76.952L34.84,54.823C34.841,53.869,35.284,52.976,36.027,52.397C36.138,52.483,36.256,52.563,36.38,52.634L55.629,63.699C55.772,63.782,55.92,63.851,56.072,63.907L56.072,90.893ZM56.072,90.893"/>
  <path stroke-linejoin="miter" stroke-dasharray="none" stroke="none" fill="#000000" fill-rule="nonzero" stroke-linecap="butt" stroke-miterlimit="4" fill-opacity="1" stroke-width="1px" stroke-opacity="1" d="M58.735,90.719L77.983,79.627C78.942,79.076,79.531,78.057,79.532,76.956L79.531,54.824C79.531,53.865,79.085,52.97,78.337,52.391C78.223,52.48,78.102,52.562,77.974,52.635L58.726,63.7C58.618,63.763,58.506,63.818,58.394,63.866L58.395,90.888C58.511,90.839,58.624,90.783,58.735,90.719ZM58.735,90.719"/>
  <path fill-rule="nonzero" stroke-linecap="butt" stroke-opacity="1" fill="#000000" stroke-miterlimit="4" stroke="none" stroke-dasharray="none" stroke-width="1px" stroke-linejoin="miter" fill-opacity="1" d="M32.159,50.19C32.99,50.668,33.988,50.732,34.863,50.381C34.844,50.242,34.833,50.099,34.834,49.956L34.833,27.747C34.833,27.582,34.847,27.418,34.874,27.258L11.4,13.717C11.375,13.874,11.362,14.035,11.362,14.198L11.362,36.406C11.362,37.512,11.952,38.532,12.911,39.085L32.159,50.19ZM32.159,50.19"/>
</g>
  <g id="Thin-L" transform="matrix(1.0,0.0,0.0,1.0,812.2633251953125,1475.3233447265625)">  <path stroke-opacity="1" stroke-dasharray="none" stroke-width="1px" fill="#000000" stroke-miterlimit="4" fill-opacity="1" fill-rule="nonzero" stroke-linecap="butt" stroke-linejoin="miter" stroke="none" d="M36.381,25.068C36.274,25.13,36.172,25.198,36.074,25.27L12.594,11.727C12.694,11.652,12.8,11.582,12.91,11.518L32.158,0.414C33.117,-0.139,34.297,-0.138,35.255,0.414L54.504,11.519C55.338,12.001,55.893,12.835,56.023,13.773L56.072,13.753C56.821,13.467,57.655,13.483,58.395,13.799C58.507,13.846,58.618,13.902,58.726,13.964L77.975,25.069C78.933,25.622,79.523,26.642,79.523,27.748L79.523,49.956C79.523,50.08,79.516,50.202,79.501,50.322C79.405,51.12,79.003,51.851,78.38,52.356L78.372,52.363L78.346,52.384L78.337,52.391C78.226,52.305,78.108,52.224,77.983,52.153L58.734,41.048C58.623,40.985,58.51,40.929,58.394,40.88C57.654,40.566,56.821,40.552,56.072,40.841L56.04,40.854L56.006,40.867C55.881,40.918,55.757,40.98,55.637,41.049L36.389,52.152C36.269,52.221,36.155,52.298,36.047,52.381L36.024,52.394C35.39,51.901,34.973,51.18,34.863,50.385L34.886,50.371C35.012,50.32,35.135,50.259,35.255,50.19L54.503,39.086C54.623,39.017,54.738,38.94,54.845,38.858L54.863,38.844C54.876,38.833,54.89,38.823,54.902,38.811C55.527,38.308,55.931,37.579,56.028,36.782C56.044,36.658,56.052,36.533,56.052,36.406L56.051,14.198C56.052,14.055,56.042,13.912,56.023,13.773C55.889,13.826,55.757,13.891,55.63,13.964L36.381,25.068ZM36.381,25.068"/>
  <path stroke="none" fill-opacity="1" stroke-linejoin="miter" stroke-width="1px" fill="#000000" stroke-miterlimit="4" stroke-dasharray="none" stroke-linecap="butt" fill-rule="nonzero" stroke-opacity="1" d="M56.072,90.893C55.924,90.836,55.779,90.768,55.638,90.687L36.389,79.622C35.431,79.071,34.841,78.054,34.841,76.952L34.84,54.823C34.841,53.869,35.284,52.976,36.027,52.397C36.138,52.483,36.256,52.563,36.38,52.634L55.629,63.699C55.772,63.782,55.92,63.851,56.072,63.907L56.072,90.893ZM56.072,90.893"/>
  <path stroke-miterlimit="4" stroke-linejoin="miter" fill-rule="nonzero" stroke-width="1px" stroke="none" stroke-dasharray="none" fill-opacity="1" fill="#000000" stroke-opacity="1" stroke-linecap="butt" d="M58.735,90.719L77.983,79.627C78.942,79.076,79.531,78.057,79.532,76.956L79.531,54.824C79.531,53.865,79.085,52.97,78.337,52.391C78.223,52.48,78.102,52.562,77.974,52.635L58.726,63.7C58.618,63.763,58.506,63.818,58.394,63.866L58.395,90.888C58.511,90.839,58.624,90.783,58.735,90.719ZM58.735,90.719"/>
  <path stroke-dasharray="none" fill="#000000" stroke-width="1px" stroke-linejoin="miter" stroke-miterlimit="4" fill-rule="nonzero" stroke-linecap="butt" stroke="none" fill-opacity="1" stroke-opacity="1" d="M32.159,50.19C32.99,50.668,33.988,50.732,34.863,50.381C34.844,50.242,34.833,50.099,34.834,49.956L34.833,27.747C34.833,27.582,34.847,27.418,34.874,27.258L11.4,13.717C11.375,13.874,11.362,14.035,11.362,14.198L11.362,36.406C11.362,37.512,11.952,38.532,12.911,39.085L32.159,50.19ZM32.159,50.19"/>
</g>
  <g id="Ultralight-L" transform="matrix(1.0,0.0,0.0,1.0,515.5533251953125,1475.3233447265625)">  <path stroke-miterlimit="4" stroke-opacity="1" fill-opacity="1" stroke-dasharray="none" stroke-width="1px" stroke="none" stroke-linejoin="miter" stroke-linecap="butt" fill="#000000" fill-rule="nonzero" d="M36.381,25.068C36.274,25.13,36.172,25.198,36.074,25.27L12.594,11.727C12.694,11.652,12.8,11.582,12.91,11.518L32.158,0.414C33.117,-0.139,34.297,-0.138,35.255,0.414L54.504,11.519C55.338,12.001,55.893,12.835,56.023,13.773L56.072,13.753C56.821,13.467,57.655,13.483,58.395,13.799C58.507,13.846,58.618,13.902,58.726,13.964L77.975,25.069C78.933,25.622,79.523,26.642,79.523,27.748L79.523,49.956C79.523,50.08,79.516,50.202,79.501,50.322C79.405,51.12,79.003,51.851,78.38,52.356L78.372,52.363L78.346,52.384L78.337,52.391C78.226,52.305,78.108,52.224,77.983,52.153L58.734,41.048C58.623,40.985,58.51,40.929,58.394,40.88C57.654,40.566,56.821,40.552,56.072,40.841L56.04,40.854L56.006,40.867C55.881,40.918,55.757,40.98,55.637,41.049L36.389,52.152C36.269,52.221,36.155,52.298,36.047,52.381L36.024,52.394C35.39,51.901,34.973,51.18,34.863,50.385L34.886,50.371C35.012,50.32,35.135,50.259,35.255,50.19L54.503,39.086C54.623,39.017,54.738,38.94,54.845,38.858L54.863,38.844C54.876,38.833,54.89,38.823,54.902,38.811C55.527,38.308,55.931,37.579,56.028,36.782C56.044,36.658,56.052,36.533,56.052,36.406L56.051,14.198C56.052,14.055,56.042,13.912,56.023,13.773C55.889,13.826,55.757,13.891,55.63,13.964L36.381,25.068ZM36.381,25.068"/>
  <path fill="#000000" stroke-opacity="1" fill-opacity="1" fill-rule="nonzero" stroke-linecap="butt" stroke="none" stroke-linejoin="miter" stroke-miterlimit="4" stroke-width="1px" stroke-dasharray="none" d="M56.072,90.893C55.924,90.836,55.779,90.768,55.638,90.687L36.389,79.622C35.431,79.071,34.841,78.054,34.841,76.952L34.84,54.823C34.841,53.869,35.284,52.976,36.027,52.397C36.138,52.483,36.256,52.563,36.38,52.634L55.629,63.699C55.772,63.782,55.92,63.851,56.072,63.907L56.072,90.893ZM56.072,90.893"/>
  <path stroke-linejoin="miter" stroke-opacity="1" fill-rule="nonzero" stroke-miterlimit="4" stroke-dasharray="none" fill="#000000" stroke="none" fill-opacity="1" stroke-width="1px" stroke-linecap="butt" d="M58.735,90.719L77.983,79.627C78.942,79.076,79.531,78.057,79.532,76.956L79.531,54.824C79.531,53.865,79.085,52.97,78.337,52.391C78.223,52.48,78.102,52.562,77.974,52.635L58.726,63.7C58.618,63.763,58.506,63.818,58.394,63.866L58.395,90.888C58.511,90.839,58.624,90.783,58.735,90.719ZM58.735,90.719"/>
  <path fill-opacity="1" stroke-miterlimit="4" stroke-linejoin="miter" stroke-dasharray="none" stroke="none" fill="#000000" stroke-opacity="1" fill-rule="nonzero" stroke-width="1px" stroke-linecap="butt" d="M32.159,50.19C32.99,50.668,33.988,50.732,34.863,50.381C34.844,50.242,34.833,50.099,34.834,49.956L34.833,27.747C34.833,27.582,34.847,27.418,34.874,27.258L11.4,13.717C11.375,13.874,11.362,14.035,11.362,14.198L11.362,36.406C11.362,37.512,11.952,38.532,12.911,39.085L32.159,50.19ZM32.159,50.19"/>
</g>
  <g id="Black-M" transform="matrix(1.0,0.0,0.0,1.0,2899.45001953125,1055.5400390625)">  <path stroke-dasharray="none" fill-opacity="1" fill="#000000" stroke-linejoin="miter" fill-rule="nonzero" stroke-opacity="1" stroke-linecap="butt" stroke="none" stroke-miterlimit="4" stroke-width="1px" d="M28.202,19.432C28.119,19.48,28.04,19.533,27.964,19.589L9.763,9.091C9.84,9.032,9.922,8.978,10.008,8.929L24.929,0.321C25.672,-0.107,26.587,-0.107,27.33,0.321L42.251,8.929C42.898,9.303,43.328,9.95,43.428,10.677L43.466,10.662C44.047,10.44,44.694,10.452,45.267,10.697C45.354,10.733,45.441,10.777,45.524,10.825L60.445,19.433C61.189,19.862,61.645,20.653,61.645,21.51L61.646,38.726C61.646,38.822,61.64,38.916,61.628,39.009C61.554,39.628,61.243,40.194,60.76,40.586L60.753,40.592L60.733,40.608L60.726,40.614C60.64,40.546,60.549,40.484,60.452,40.429L45.531,31.82C45.444,31.771,45.357,31.728,45.267,31.69C44.693,31.446,44.047,31.436,43.466,31.66L43.442,31.67L43.416,31.68C43.319,31.72,43.223,31.767,43.13,31.821L28.208,40.428C28.116,40.482,28.027,40.541,27.944,40.605L27.925,40.616C27.434,40.233,27.111,39.674,27.025,39.058L27.044,39.048C27.141,39.008,27.237,38.96,27.329,38.907L42.251,30.299C42.343,30.246,42.433,30.186,42.516,30.122L42.529,30.112C42.54,30.103,42.55,30.095,42.56,30.086C43.044,29.696,43.358,29.131,43.432,28.513C43.445,28.417,43.451,28.32,43.451,28.222L43.45,11.006C43.451,10.895,43.444,10.784,43.428,10.677C43.325,10.718,43.222,10.768,43.124,10.825L28.202,19.432ZM28.202,19.432"/>
  <path stroke-opacity="1" stroke="none" stroke-miterlimit="4" fill-opacity="1" stroke-linecap="butt" fill-rule="nonzero" stroke-dasharray="none" stroke-width="1px" stroke-linejoin="miter" fill="#000000" d="M43.466,70.46C43.352,70.415,43.239,70.363,43.13,70.3L28.208,61.722C27.466,61.295,27.008,60.507,27.008,59.653L27.008,42.499C27.008,41.759,27.352,41.067,27.928,40.618C28.014,40.684,28.105,40.747,28.202,40.802L43.123,49.379C43.234,49.443,43.349,49.497,43.467,49.541L43.466,70.46ZM43.466,70.46"/>
  <path fill-opacity="1" stroke-miterlimit="4" fill-rule="nonzero" stroke-linejoin="miter" stroke-opacity="1" stroke-width="1px" stroke-dasharray="none" fill="#000000" stroke-linecap="butt" stroke="none" d="M45.531,70.325L60.452,61.726C61.195,61.299,61.652,60.509,61.652,59.656L61.652,42.499C61.652,41.755,61.306,41.062,60.726,40.614C60.638,40.682,60.544,40.745,60.445,40.802L45.524,49.38C45.44,49.428,45.354,49.471,45.267,49.508L45.267,70.456C45.357,70.418,45.445,70.374,45.531,70.325ZM45.531,70.325"/>
  <path stroke-dasharray="none" stroke-linejoin="miter" stroke-width="1px" stroke-linecap="butt" fill-opacity="1" stroke="none" stroke-miterlimit="4" fill="#000000" stroke-opacity="1" fill-rule="nonzero" d="M24.93,38.907C25.574,39.278,26.347,39.327,27.026,39.055C27.011,38.947,27.002,38.836,27.003,38.725L27.002,21.51C27.002,21.381,27.013,21.254,27.034,21.13L8.837,10.633C8.818,10.755,8.808,10.88,8.807,11.006L8.808,28.222C8.808,29.079,9.265,29.87,10.008,30.299L24.93,38.907ZM24.93,38.907"/>
</g>
  <g id="Heavy-M" transform="matrix(1.0,0.0,0.0,1.0,2602.74001953125,1055.5400390625)">  <path stroke-linejoin="miter" stroke-dasharray="none" stroke-linecap="butt" fill-opacity="1" stroke-width="1px" stroke="none" stroke-opacity="1" fill-rule="nonzero" fill="#000000" stroke-miterlimit="4" d="M28.202,19.432C28.119,19.48,28.04,19.533,27.964,19.589L9.763,9.091C9.84,9.032,9.922,8.978,10.008,8.929L24.929,0.321C25.672,-0.107,26.587,-0.107,27.33,0.321L42.251,8.929C42.898,9.303,43.328,9.95,43.428,10.677L43.466,10.662C44.047,10.44,44.694,10.452,45.267,10.697C45.354,10.733,45.441,10.777,45.524,10.825L60.445,19.433C61.189,19.862,61.645,20.653,61.645,21.51L61.646,38.726C61.646,38.822,61.64,38.916,61.628,39.009C61.554,39.628,61.243,40.194,60.76,40.586L60.753,40.592L60.733,40.608L60.726,40.614C60.64,40.546,60.549,40.484,60.452,40.429L45.531,31.82C45.444,31.771,45.357,31.728,45.267,31.69C44.693,31.446,44.047,31.436,43.466,31.66L43.442,31.67L43.416,31.68C43.319,31.72,43.223,31.767,43.13,31.821L28.208,40.428C28.116,40.482,28.027,40.541,27.944,40.605L27.925,40.616C27.434,40.233,27.111,39.674,27.025,39.058L27.044,39.048C27.141,39.008,27.237,38.96,27.329,38.907L42.251,30.299C42.343,30.246,42.433,30.186,42.516,30.122L42.529,30.112C42.54,30.103,42.55,30.095,42.56,30.086C43.044,29.696,43.358,29.131,43.432,28.513C43.445,28.417,43.451,28.32,43.451,28.222L43.45,11.006C43.451,10.895,43.444,10.784,43.428,10.677C43.325,10.718,43.222,10.768,43.124,10.825L28.202,19.432ZM28.202,19.432"/>
  <path stroke-linejoin="miter" fill-rule="nonzero" fill="#000000" stroke-width="1px" stroke-miterlimit="4" stroke-linecap="butt" stroke-opacity="1" fill-opacity="1" stroke="none" stroke-dasharray="none" d="M43.466,70.46C43.352,70.415,43.239,70.363,43.13,70.3L28.208,61.722C27.466,61.295,27.008,60.507,27.008,59.653L27.008,42.499C27.008,41.759,27.352,41.067,27.928,40.618C28.014,40.684,28.105,40.747,28.202,40.802L43.123,49.379C43.234,49.443,43.349,49.497,43.467,49.541L43.466,70.46ZM43.466,70.46"/>
  <path fill="#000000" stroke-dasharray="none" fill-rule="nonzero" stroke-linecap="butt" stroke-miterlimit="4" fill-opacity="1" stroke-linejoin="miter" stroke-opacity="1" stroke-width="1px" stroke="none" d="M45.531,70.325L60.452,61.726C61.195,61.299,61.652,60.509,61.652,59.656L61.652,42.499C61.652,41.755,61.306,41.062,60.726,40.614C60.638,40.682,60.544,40.745,60.445,40.802L45.524,49.38C45.44,49.428,45.354,49.471,45.267,49.508L45.267,70.456C45.357,70.418,45.445,70.374,45.531,70.325ZM45.531,70.325"/>
  <path stroke-linecap="butt" fill="#000000" stroke-linejoin="miter" fill-opacity="1" stroke-miterlimit="4" stroke-dasharray="none" stroke-opacity="1" stroke="none" fill-rule="nonzero" stroke-width="1px" d="M24.93,38.907C25.574,39.278,26.347,39.327,27.026,39.055C27.011,38.947,27.002,38.836,27.003,38.725L27.002,21.51C27.002,21.381,27.013,21.254,27.034,21.13L8.837,10.633C8.818,10.755,8.808,10.88,8.807,11.006L8.808,28.222C8.808,29.079,9.265,29.87,10.008,30.299L24.93,38.907ZM24.93,38.907"/>
</g>
  <g id="Bold-M" transform="matrix(1.0,0.0,0.0,1.0,2306.0300195312498,1055.5400390625)">  <path stroke-dasharray="none" stroke-linecap="butt" fill-rule="nonzero" stroke-width="1px" stroke-opacity="1" fill-opacity="1" stroke-linejoin="miter" stroke-miterlimit="4" fill="#000000" stroke="none" d="M28.202,19.432C28.119,19.48,28.04,19.533,27.964,19.589L9.763,9.091C9.84,9.032,9.922,8.978,10.008,8.929L24.929,0.321C25.672,-0.107,26.587,-0.107,27.33,0.321L42.251,8.929C42.898,9.303,43.328,9.95,43.428,10.677L43.466,10.662C44.047,10.44,44.694,10.452,45.267,10.697C45.354,10.733,45.441,10.777,45.524,10.825L60.445,19.433C61.189,19.862,61.645,20.653,61.645,21.51L61.646,38.726C61.646,38.822,61.64,38.916,61.628,39.009C61.554,39.628,61.243,40.194,60.76,40.586L60.753,40.592L60.733,40.608L60.726,40.614C60.64,40.546,60.549,40.484,60.452,40.429L45.531,31.82C45.444,31.771,45.357,31.728,45.267,31.69C44.693,31.446,44.047,31.436,43.466,31.66L43.442,31.67L43.416,31.68C43.319,31.72,43.223,31.767,43.13,31.821L28.208,40.428C28.116,40.482,28.027,40.541,27.944,40.605L27.925,40.616C27.434,40.233,27.111,39.674,27.025,39.058L27.044,39.048C27.141,39.008,27.237,38.96,27.329,38.907L42.251,30.299C42.343,30.246,42.433,30.186,42.516,30.122L42.529,30.112C42.54,30.103,42.55,30.095,42.56,30.086C43.044,29.696,43.358,29.131,43.432,28.513C43.445,28.417,43.451,28.32,43.451,28.222L43.45,11.006C43.451,10.895,43.444,10.784,43.428,10.677C43.325,10.718,43.222,10.768,43.124,10.825L28.202,19.432ZM28.202,19.432"/>
  <path stroke-linecap="butt" fill="#000000" stroke-dasharray="none" stroke-linejoin="miter" fill-rule="nonzero" fill-opacity="1" stroke-miterlimit="4" stroke="none" stroke-width="1px" stroke-opacity="1" d="M43.466,70.46C43.352,70.415,43.239,70.363,43.13,70.3L28.208,61.722C27.466,61.295,27.008,60.507,27.008,59.653L27.008,42.499C27.008,41.759,27.352,41.067,27.928,40.618C28.014,40.684,28.105,40.747,28.202,40.802L43.123,49.379C43.234,49.443,43.349,49.497,43.467,49.541L43.466,70.46ZM43.466,70.46"/>
  <path stroke-miterlimit="4" stroke-linecap="butt" fill="#000000" fill-opacity="1" stroke-linejoin="miter" stroke-dasharray="none" stroke="none" stroke-opacity="1" stroke-width="1px" fill-rule="nonzero" d="M45.531,70.325L60.452,61.726C61.195,61.299,61.652,60.509,61.652,59.656L61.652,42.499C61.652,41.755,61.306,41.062,60.726,40.614C60.638,40.682,60.544,40.745,60.445,40.802L45.524,49.38C45.44,49.428,45.354,49.471,45.267,49.508L45.267,70.456C45.357,70.418,45.445,70.374,45.531,70.325ZM45.531,70.325"/>
  <path stroke-width="1px" fill-opacity="1" fill="#000000" stroke-dasharray="none" stroke-linejoin="miter" stroke-opacity="1" fill-rule="nonzero" stroke-miterlimit="4" stroke="none" stroke-linecap="butt" d="M24.93,38.907C25.574,39.278,26.347,39.327,27.026,39.055C27.011,38.947,27.002,38.836,27.003,38.725L27.002,21.51C27.002,21.381,27.013,21.254,27.034,21.13L8.837,10.633C8.818,10.755,8.808,10.88,8.807,11.006L8.808,28.222C8.808,29.079,9.265,29.87,10.008,30.299L24.93,38.907ZM24.93,38.907"/>
</g>
  <g id="Semibold-M" transform="matrix(1.0,0.0,0.0,1.0,2009.32001953125,1055.5400390625)">  <path fill-opacity="1" stroke="none" stroke-opacity="1" stroke-miterlimit="4" stroke-linecap="butt" stroke-dasharray="none" stroke-linejoin="miter" fill="#000000" stroke-width="1px" fill-rule="nonzero" d="M28.202,19.432C28.119,19.48,28.04,19.533,27.964,19.589L9.763,9.091C9.84,9.032,9.922,8.978,10.008,8.929L24.929,0.321C25.672,-0.107,26.587,-0.107,27.33,0.321L42.251,8.929C42.898,9.303,43.328,9.95,43.428,10.677L43.466,10.662C44.047,10.44,44.694,10.452,45.267,10.697C45.354,10.733,45.441,10.777,45.524,10.825L60.445,19.433C61.189,19.862,61.645,20.653,61.645,21.51L61.646,38.726C61.646,38.822,61.64,38.916,61.628,39.009C61.554,39.628,61.243,40.194,60.76,40.586L60.753,40.592L60.733,40.608L60.726,40.614C60.64,40.546,60.549,40.484,60.452,40.429L45.531,31.82C45.444,31.771,45.357,31.728,45.267,31.69C44.693,31.446,44.047,31.436,43.466,31.66L43.442,31.67L43.416,31.68C43.319,31.72,43.223,31.767,43.13,31.821L28.208,40.428C28.116,40.482,28.027,40.541,27.944,40.605L27.925,40.616C27.434,40.233,27.111,39.674,27.025,39.058L27.044,39.048C27.141,39.008,27.237,38.96,27.329,38.907L42.251,30.299C42.343,30.246,42.433,30.186,42.516,30.122L42.529,30.112C42.54,30.103,42.55,30.095,42.56,30.086C43.044,29.696,43.358,29.131,43.432,28.513C43.445,28.417,43.451,28.32,43.451,28.222L43.45,11.006C43.451,10.895,43.444,10.784,43.428,10.677C43.325,10.718,43.222,10.768,43.124,10.825L28.202,19.432ZM28.202,19.432"/>
  <path fill="#000000" stroke-miterlimit="4" stroke-width="1px" stroke-opacity="1" fill-opacity="1" fill-rule="nonzero" stroke-linecap="butt" stroke-linejoin="miter" stroke="none" stroke-dasharray="none" d="M43.466,70.46C43.352,70.415,43.239,70.363,43.13,70.3L28.208,61.722C27.466,61.295,27.008,60.507,27.008,59.653L27.008,42.499C27.008,41.759,27.352,41.067,27.928,40.618C28.014,40.684,28.105,40.747,28.202,40.802L43.123,49.379C43.234,49.443,43.349,49.497,43.467,49.541L43.466,70.46ZM43.466,70.46"/>
  <path stroke-opacity="1" stroke-dasharray="none" fill-rule="nonzero" stroke-width="1px" fill="#000000" stroke-miterlimit="4" fill-opacity="1" stroke-linecap="butt" stroke-linejoin="miter" stroke="none" d="M45.531,70.325L60.452,61.726C61.195,61.299,61.652,60.509,61.652,59.656L61.652,42.499C61.652,41.755,61.306,41.062,60.726,40.614C60.638,40.682,60.544,40.745,60.445,40.802L45.524,49.38C45.44,49.428,45.354,49.471,45.267,49.508L45.267,70.456C45.357,70.418,45.445,70.374,45.531,70.325ZM45.531,70.325"/>
  <path stroke-dasharray="none" stroke="none" stroke-linejoin="miter" stroke-linecap="butt" fill="#000000" stroke-opacity="1" stroke-miterlimit="4" fill-opacity="1" fill-rule="nonzero" stroke-width="1px" d="M24.93,38.907C25.574,39.278,26.347,39.327,27.026,39.055C27.011,38.947,27.002,38.836,27.003,38.725L27.002,21.51C27.002,21.381,27.013,21.254,27.034,21.13L8.837,10.633C8.818,10.755,8.808,10.88,8.807,11.006L8.808,28.222C8.808,29.079,9.265,29.87,10.008,30.299L24.93,38.907ZM24.93,38.907"/>
</g>
  <g id="Medium-M" transform="matrix(1.0,0.0,0.0,1.0,1712.61001953125,1055.5400390625)">  <path stroke-opacity="1" stroke-dasharray="none" stroke-linecap="butt" fill-opacity="1" fill-rule="nonzero" stroke-miterlimit="4" stroke-linejoin="miter" stroke-width="1px" stroke="none" fill="#000000" d="M28.202,19.432C28.119,19.48,28.04,19.533,27.964,19.589L9.763,9.091C9.84,9.032,9.922,8.978,10.008,8.929L24.929,0.321C25.672,-0.107,26.587,-0.107,27.33,0.321L42.251,8.929C42.898,9.303,43.328,9.95,43.428,10.677L43.466,10.662C44.047,10.44,44.694,10.452,45.267,10.697C45.354,10.733,45.441,10.777,45.524,10.825L60.445,19.433C61.189,19.862,61.645,20.653,61.645,21.51L61.646,38.726C61.646,38.822,61.64,38.916,61.628,39.009C61.554,39.628,61.243,40.194,60.76,40.586L60.753,40.592L60.733,40.608L60.726,40.614C60.64,40.546,60.549,40.484,60.452,40.429L45.531,31.82C45.444,31.771,45.357,31.728,45.267,31.69C44.693,31.446,44.047,31.436,43.466,31.66L43.442,31.67L43.416,31.68C43.319,31.72,43.223,31.767,43.13,31.821L28.208,40.428C28.116,40.482,28.027,40.541,27.944,40.605L27.925,40.616C27.434,40.233,27.111,39.674,27.025,39.058L27.044,39.048C27.141,39.008,27.237,38.96,27.329,38.907L42.251,30.299C42.343,30.246,42.433,30.186,42.516,30.122L42.529,30.112C42.54,30.103,42.55,30.095,42.56,30.086C43.044,29.696,43.358,29.131,43.432,28.513C43.445,28.417,43.451,28.32,43.451,28.222L43.45,11.006C43.451,10.895,43.444,10.784,43.428,10.677C43.325,10.718,43.222,10.768,43.124,10.825L28.202,19.432ZM28.202,19.432"/>
  <path stroke-dasharray="none" stroke-width="1px" stroke-linejoin="miter" stroke-linecap="butt" fill="#000000" stroke="none" stroke-opacity="1" fill-opacity="1" fill-rule="nonzero" stroke-miterlimit="4" d="M43.466,70.46C43.352,70.415,43.239,70.363,43.13,70.3L28.208,61.722C27.466,61.295,27.008,60.507,27.008,59.653L27.008,42.499C27.008,41.759,27.352,41.067,27.928,40.618C28.014,40.684,28.105,40.747,28.202,40.802L43.123,49.379C43.234,49.443,43.349,49.497,43.467,49.541L43.466,70.46ZM43.466,70.46"/>
  <path stroke-linejoin="miter" stroke-opacity="1" stroke-width="1px" stroke-linecap="butt" stroke-dasharray="none" fill-opacity="1" fill-rule="nonzero" stroke-miterlimit="4" stroke="none" fill="#000000" d="M45.531,70.325L60.452,61.726C61.195,61.299,61.652,60.509,61.652,59.656L61.652,42.499C61.652,41.755,61.306,41.062,60.726,40.614C60.638,40.682,60.544,40.745,60.445,40.802L45.524,49.38C45.44,49.428,45.354,49.471,45.267,49.508L45.267,70.456C45.357,70.418,45.445,70.374,45.531,70.325ZM45.531,70.325"/>
  <path stroke-linejoin="miter" stroke-opacity="1" fill-opacity="1" fill-rule="nonzero" fill="#000000" stroke-width="1px" stroke-dasharray="none" stroke="none" stroke-miterlimit="4" stroke-linecap="butt" d="M24.93,38.907C25.574,39.278,26.347,39.327,27.026,39.055C27.011,38.947,27.002,38.836,27.003,38.725L27.002,21.51C27.002,21.381,27.013,21.254,27.034,21.13L8.837,10.633C8.818,10.755,8.808,10.88,8.807,11.006L8.808,28.222C8.808,29.079,9.265,29.87,10.008,30.299L24.93,38.907ZM24.93,38.907"/>
</g>
  <g id="Regular-M" transform="matrix(1.0,0.0,0.0,1.0,1415.9000195312499,1055.5400390625)">  <path stroke-linejoin="miter" fill-opacity="1" stroke-miterlimit="4" stroke="none" stroke-dasharray="none" fill-rule="nonzero" fill="#000000" stroke-linecap="butt" stroke-width="1px" stroke-opacity="1" d="M28.202,19.432C28.119,19.48,28.04,19.533,27.964,19.589L9.763,9.091C9.84,9.032,9.922,8.978,10.008,8.929L24.929,0.321C25.672,-0.107,26.587,-0.107,27.33,0.321L42.251,8.929C42.898,9.303,43.328,9.95,43.428,10.677L43.466,10.662C44.047,10.44,44.694,10.452,45.267,10.697C45.354,10.733,45.441,10.777,45.524,10.825L60.445,19.433C61.189,19.862,61.645,20.653,61.645,21.51L61.646,38.726C61.646,38.822,61.64,38.916,61.628,39.009C61.554,39.628,61.243,40.194,60.76,40.586L60.753,40.592L60.733,40.608L60.726,40.614C60.64,40.546,60.549,40.484,60.452,40.429L45.531,31.82C45.444,31.771,45.357,31.728,45.267,31.69C44.693,31.446,44.047,31.436,43.466,31.66L43.442,31.67L43.416,31.68C43.319,31.72,43.223,31.767,43.13,31.821L28.208,40.428C28.116,40.482,28.027,40.541,27.944,40.605L27.925,40.616C27.434,40.233,27.111,39.674,27.025,39.058L27.044,39.048C27.141,39.008,27.237,38.96,27.329,38.907L42.251,30.299C42.343,30.246,42.433,30.186,42.516,30.122L42.529,30.112C42.54,30.103,42.55,30.095,42.56,30.086C43.044,29.696,43.358,29.131,43.432,28.513C43.445,28.417,43.451,28.32,43.451,28.222L43.45,11.006C43.451,10.895,43.444,10.784,43.428,10.677C43.325,10.718,43.222,10.768,43.124,10.825L28.202,19.432ZM28.202,19.432"/>
  <path stroke="none" stroke-width="1px" stroke-linecap="butt" fill="#000000" stroke-linejoin="miter" fill-opacity="1" stroke-dasharray="none" fill-rule="nonzero" stroke-opacity="1" stroke-miterlimit="4" d="M43.466,70.46C43.352,70.415,43.239,70.363,43.13,70.3L28.208,61.722C27.466,61.295,27.008,60.507,27.008,59.653L27.008,42.499C27.008,41.759,27.352,41.067,27.928,40.618C28.014,40.684,28.105,40.747,28.202,40.802L43.123,49.379C43.234,49.443,43.349,49.497,43.467,49.541L43.466,70.46ZM43.466,70.46"/>
  <path stroke-width="1px" stroke-opacity="1" stroke-linecap="butt" stroke-miterlimit="4" fill-rule="nonzero" fill-opacity="1" fill="#000000" stroke-linejoin="miter" stroke-dasharray="none" stroke="none" d="M45.531,70.325L60.452,61.726C61.195,61.299,61.652,60.509,61.652,59.656L61.652,42.499C61.652,41.755,61.306,41.062,60.726,40.614C60.638,40.682,60.544,40.745,60.445,40.802L45.524,49.38C45.44,49.428,45.354,49.471,45.267,49.508L45.267,70.456C45.357,70.418,45.445,70.374,45.531,70.325ZM45.531,70.325"/>
  <path stroke-opacity="1" stroke-linecap="butt" fill-opacity="1" fill="#000000" stroke-dasharray="none" stroke-width="1px" stroke="none" stroke-miterlimit="4" fill-rule="nonzero" stroke-linejoin="miter" d="M24.93,38.907C25.574,39.278,26.347,39.327,27.026,39.055C27.011,38.947,27.002,38.836,27.003,38.725L27.002,21.51C27.002,21.381,27.013,21.254,27.034,21.13L8.837,10.633C8.818,10.755,8.808,10.88,8.807,11.006L8.808,28.222C8.808,29.079,9.265,29.87,10.008,30.299L24.93,38.907ZM24.93,38.907"/>
</g>
  <g id="Light-M" transform="matrix(1.0,0.0,0.0,1.0,1119.19001953125,1055.5400390625)">  <path fill-rule="nonzero" fill-opacity="1" stroke-linejoin="miter" stroke="none" stroke-miterlimit="4" stroke-dasharray="none" fill="#000000" stroke-opacity="1" stroke-width="1px" stroke-linecap="butt" d="M28.202,19.432C28.119,19.48,28.04,19.533,27.964,19.589L9.763,9.091C9.84,9.032,9.922,8.978,10.008,8.929L24.929,0.321C25.672,-0.107,26.587,-0.107,27.33,0.321L42.251,8.929C42.898,9.303,43.328,9.95,43.428,10.677L43.466,10.662C44.047,10.44,44.694,10.452,45.267,10.697C45.354,10.733,45.441,10.777,45.524,10.825L60.445,19.433C61.189,19.862,61.645,20.653,61.645,21.51L61.646,38.726C61.646,38.822,61.64,38.916,61.628,39.009C61.554,39.628,61.243,40.194,60.76,40.586L60.753,40.592L60.733,40.608L60.726,40.614C60.64,40.546,60.549,40.484,60.452,40.429L45.531,31.82C45.444,31.771,45.357,31.728,45.267,31.69C44.693,31.446,44.047,31.436,43.466,31.66L43.442,31.67L43.416,31.68C43.319,31.72,43.223,31.767,43.13,31.821L28.208,40.428C28.116,40.482,28.027,40.541,27.944,40.605L27.925,40.616C27.434,40.233,27.111,39.674,27.025,39.058L27.044,39.048C27.141,39.008,27.237,38.96,27.329,38.907L42.251,30.299C42.343,30.246,42.433,30.186,42.516,30.122L42.529,30.112C42.54,30.103,42.55,30.095,42.56,30.086C43.044,29.696,43.358,29.131,43.432,28.513C43.445,28.417,43.451,28.32,43.451,28.222L43.45,11.006C43.451,10.895,43.444,10.784,43.428,10.677C43.325,10.718,43.222,10.768,43.124,10.825L28.202,19.432ZM28.202,19.432"/>
  <path stroke-opacity="1" fill="#000000" stroke-linecap="butt" fill-rule="nonzero" stroke-miterlimit="4" stroke-linejoin="miter" fill-opacity="1" stroke-width="1px" stroke-dasharray="none" stroke="none" d="M43.466,70.46C43.352,70.415,43.239,70.363,43.13,70.3L28.208,61.722C27.466,61.295,27.008,60.507,27.008,59.653L27.008,42.499C27.008,41.759,27.352,41.067,27.928,40.618C28.014,40.684,28.105,40.747,28.202,40.802L43.123,49.379C43.234,49.443,43.349,49.497,43.467,49.541L43.466,70.46ZM43.466,70.46"/>
  <path stroke-linejoin="miter" stroke-dasharray="none" stroke="none" fill="#000000" fill-rule="nonzero" stroke-linecap="butt" stroke-miterlimit="4" fill-opacity="1" stroke-width="1px" stroke-opacity="1" d="M45.531,70.325L60.452,61.726C61.195,61.299,61.652,60.509,61.652,59.656L61.652,42.499C61.652,41.755,61.306,41.062,60.726,40.614C60.638,40.682,60.544,40.745,60.445,40.802L45.524,49.38C45.44,49.428,45.354,49.471,45.267,49.508L45.267,70.456C45.357,70.418,45.445,70.374,45.531,70.325ZM45.531,70.325"/>
  <path fill-rule="nonzero" stroke-linecap="butt" stroke-opacity="1" fill="#000000" stroke-miterlimit="4" stroke="none" stroke-dasharray="none" stroke-width="1px" stroke-linejoin="miter" fill-opacity="1" d="M24.93,38.907C25.574,39.278,26.347,39.327,27.026,39.055C27.011,38.947,27.002,38.836,27.003,38.725L27.002,21.51C27.002,21.381,27.013,21.254,27.034,21.13L8.837,10.633C8.818,10.755,8.808,10.88,8.807,11.006L8.808,28.222C8.808,29.079,9.265,29.87,10.008,30.299L24.93,38.907ZM24.93,38.907"/>
</g>
  <g id="Thin-M" transform="matrix(1.0,0.0,0.0,1.0,822.48001953125,1055.5400390625)">  <path stroke-opacity="1" stroke-dasharray="none" stroke-width="1px" fill="#000000" stroke-miterlimit="4" fill-opacity="1" fill-rule="nonzero" stroke-linecap="butt" stroke-linejoin="miter" stroke="none" d="M28.202,19.432C28.119,19.48,28.04,19.533,27.964,19.589L9.763,9.091C9.84,9.032,9.922,8.978,10.008,8.929L24.929,0.321C25.672,-0.107,26.587,-0.107,27.33,0.321L42.251,8.929C42.898,9.303,43.328,9.95,43.428,10.677L43.466,10.662C44.047,10.44,44.694,10.452,45.267,10.697C45.354,10.733,45.441,10.777,45.524,10.825L60.445,19.433C61.189,19.862,61.645,20.653,61.645,21.51L61.646,38.726C61.646,38.822,61.64,38.916,61.628,39.009C61.554,39.628,61.243,40.194,60.76,40.586L60.753,40.592L60.733,40.608L60.726,40.614C60.64,40.546,60.549,40.484,60.452,40.429L45.531,31.82C45.444,31.771,45.357,31.728,45.267,31.69C44.693,31.446,44.047,31.436,43.466,31.66L43.442,31.67L43.416,31.68C43.319,31.72,43.223,31.767,43.13,31.821L28.208,40.428C28.116,40.482,28.027,40.541,27.944,40.605L27.925,40.616C27.434,40.233,27.111,39.674,27.025,39.058L27.044,39.048C27.141,39.008,27.237,38.96,27.329,38.907L42.251,30.299C42.343,30.246,42.433,30.186,42.516,30.122L42.529,30.112C42.54,30.103,42.55,30.095,42.56,30.086C43.044,29.696,43.358,29.131,43.432,28.513C43.445,28.417,43.451,28.32,43.451,28.222L43.45,11.006C43.451,10.895,43.444,10.784,43.428,10.677C43.325,10.718,43.222,10.768,43.124,10.825L28.202,19.432ZM28.202,19.432"/>
  <path stroke="none" fill-opacity="1" stroke-linejoin="miter" stroke-width="1px" fill="#000000" stroke-miterlimit="4" stroke-dasharray="none" stroke-linecap="butt" fill-rule="nonzero" stroke-opacity="1" d="M43.466,70.46C43.352,70.415,43.239,70.363,43.13,70.3L28.208,61.722C27.466,61.295,27.008,60.507,27.008,59.653L27.008,42.499C27.008,41.759,27.352,41.067,27.928,40.618C28.014,40.684,28.105,40.747,28.202,40.802L43.123,49.379C43.234,49.443,43.349,49.497,43.467,49.541L43.466,70.46ZM43.466,70.46"/>
  <path stroke-miterlimit="4" stroke-linejoin="miter" fill-rule="nonzero" stroke-width="1px" stroke="none" stroke-dasharray="none" fill-opacity="1" fill="#000000" stroke-opacity="1" stroke-linecap="butt" d="M45.531,70.325L60.452,61.726C61.195,61.299,61.652,60.509,61.652,59.656L61.652,42.499C61.652,41.755,61.306,41.062,60.726,40.614C60.638,40.682,60.544,40.745,60.445,40.802L45.524,49.38C45.44,49.428,45.354,49.471,45.267,49.508L45.267,70.456C45.357,70.418,45.445,70.374,45.531,70.325ZM45.531,70.325"/>
  <path stroke-dasharray="none" fill="#000000" stroke-width="1px" stroke-linejoin="miter" stroke-miterlimit="4" fill-rule="nonzero" stroke-linecap="butt" stroke="none" fill-opacity="1" stroke-opacity="1" d="M24.93,38.907C25.574,39.278,26.347,39.327,27.026,39.055C27.011,38.947,27.002,38.836,27.003,38.725L27.002,21.51C27.002,21.381,27.013,21.254,27.034,21.13L8.837,10.633C8.818,10.755,8.808,10.88,8.807,11.006L8.808,28.222C8.808,29.079,9.265,29.87,10.008,30.299L24.93,38.907ZM24.93,38.907"/>
</g>
  <g id="Ultralight-M" transform="matrix(1.0,0.0,0.0,1.0,525.77001953125,1055.5400390625)">  <path stroke-miterlimit="4" stroke-opacity="1" fill-opacity="1" stroke-dasharray="none" stroke-width="1px" stroke="none" stroke-linejoin="miter" stroke-linecap="butt" fill="#000000" fill-rule="nonzero" d="M28.202,19.432C28.119,19.48,28.04,19.533,27.964,19.589L9.763,9.091C9.84,9.032,9.922,8.978,10.008,8.929L24.929,0.321C25.672,-0.107,26.587,-0.107,27.33,0.321L42.251,8.929C42.898,9.303,43.328,9.95,43.428,10.677L43.466,10.662C44.047,10.44,44.694,10.452,45.267,10.697C45.354,10.733,45.441,10.777,45.524,10.825L60.445,19.433C61.189,19.862,61.645,20.653,61.645,21.51L61.646,38.726C61.646,38.822,61.64,38.916,61.628,39.009C61.554,39.628,61.243,40.194,60.76,40.586L60.753,40.592L60.733,40.608L60.726,40.614C60.64,40.546,60.549,40.484,60.452,40.429L45.531,31.82C45.444,31.771,45.357,31.728,45.267,31.69C44.693,31.446,44.047,31.436,43.466,31.66L43.442,31.67L43.416,31.68C43.319,31.72,43.223,31.767,43.13,31.821L28.208,40.428C28.116,40.482,28.027,40.541,27.944,40.605L27.925,40.616C27.434,40.233,27.111,39.674,27.025,39.058L27.044,39.048C27.141,39.008,27.237,38.96,27.329,38.907L42.251,30.299C42.343,30.246,42.433,30.186,42.516,30.122L42.529,30.112C42.54,30.103,42.55,30.095,42.56,30.086C43.044,29.696,43.358,29.131,43.432,28.513C43.445,28.417,43.451,28.32,43.451,28.222L43.45,11.006C43.451,10.895,43.444,10.784,43.428,10.677C43.325,10.718,43.222,10.768,43.124,10.825L28.202,19.432ZM28.202,19.432"/>
  <path fill="#000000" stroke-opacity="1" fill-opacity="1" fill-rule="nonzero" stroke-linecap="butt" stroke="none" stroke-linejoin="miter" stroke-miterlimit="4" stroke-width="1px" stroke-dasharray="none" d="M43.466,70.46C43.352,70.415,43.239,70.363,43.13,70.3L28.208,61.722C27.466,61.295,27.008,60.507,27.008,59.653L27.008,42.499C27.008,41.759,27.352,41.067,27.928,40.618C28.014,40.684,28.105,40.747,28.202,40.802L43.123,49.379C43.234,49.443,43.349,49.497,43.467,49.541L43.466,70.46ZM43.466,70.46"/>
  <path stroke-linejoin="miter" stroke-opacity="1" fill-rule="nonzero" stroke-miterlimit="4" stroke-dasharray="none" fill="#000000" stroke="none" fill-opacity="1" stroke-width="1px" stroke-linecap="butt" d="M45.531,70.325L60.452,61.726C61.195,61.299,61.652,60.509,61.652,59.656L61.652,42.499C61.652,41.755,61.306,41.062,60.726,40.614C60.638,40.682,60.544,40.745,60.445,40.802L45.524,49.38C45.44,49.428,45.354,49.471,45.267,49.508L45.267,70.456C45.357,70.418,45.445,70.374,45.531,70.325ZM45.531,70.325"/>
  <path fill-opacity="1" stroke-miterlimit="4" stroke-linejoin="miter" stroke-dasharray="none" stroke="none" fill="#000000" stroke-opacity="1" fill-rule="nonzero" stroke-width="1px" stroke-linecap="butt" d="M24.93,38.907C25.574,39.278,26.347,39.327,27.026,39.055C27.011,38.947,27.002,38.836,27.003,38.725L27.002,21.51C27.002,21.381,27.013,21.254,27.034,21.13L8.837,10.633C8.818,10.755,8.808,10.88,8.807,11.006L8.808,28.222C8.808,29.079,9.265,29.87,10.008,30.299L24.93,38.907ZM24.93,38.907"/>
</g>
  <g id="Black-S" transform="matrix(1.0,0.0,0.0,1.0,2907.0949252929686,633.1849448242187)">  <path stroke-dasharray="none" fill-opacity="1" fill="#000000" stroke-linejoin="miter" fill-rule="nonzero" stroke-opacity="1" stroke-linecap="butt" stroke="none" stroke-miterlimit="4" stroke-width="1px" d="M22.083,15.216C22.018,15.253,21.955,15.294,21.896,15.338L7.644,7.118C7.705,7.072,7.769,7.03,7.836,6.991L19.519,0.252C20.101,-0.084,20.818,-0.084,21.399,0.251L33.083,6.992C33.589,7.284,33.926,7.791,34.004,8.36L34.034,8.348C34.489,8.174,34.995,8.184,35.444,8.376C35.512,8.404,35.58,8.438,35.645,8.476L47.329,15.216C47.911,15.552,48.268,16.171,48.268,16.842L48.269,30.322C48.269,30.398,48.264,30.471,48.255,30.544C48.197,31.029,47.953,31.472,47.575,31.779L47.57,31.783L47.554,31.796L47.549,31.8C47.481,31.748,47.41,31.699,47.334,31.656L35.65,24.915C35.583,24.877,35.514,24.843,35.444,24.813C34.995,24.622,34.489,24.614,34.034,24.79L34.015,24.797L33.994,24.805C33.918,24.837,33.843,24.874,33.771,24.916L22.087,31.655C22.015,31.697,21.945,31.744,21.88,31.794L21.866,31.802C21.481,31.502,21.228,31.065,21.161,30.582L21.175,30.574C21.251,30.543,21.326,30.506,21.399,30.464L33.082,23.724C33.155,23.682,33.225,23.636,33.29,23.586L33.3,23.577C33.309,23.571,33.317,23.565,33.324,23.558C33.704,23.252,33.949,22.81,34.008,22.326C34.017,22.251,34.022,22.175,34.022,22.098L34.022,8.618C34.022,8.531,34.016,8.444,34.004,8.36C33.923,8.392,33.843,8.431,33.766,8.476L22.083,15.216ZM22.083,15.216"/>
  <path stroke-opacity="1" stroke="none" stroke-miterlimit="4" fill-opacity="1" stroke-linecap="butt" fill-rule="nonzero" stroke-dasharray="none" stroke-width="1px" stroke-linejoin="miter" fill="#000000" d="M34.034,55.17C33.944,55.135,33.856,55.094,33.771,55.045L22.087,48.329C21.505,47.994,21.147,47.377,21.148,46.708L21.147,33.276C21.148,32.697,21.417,32.155,21.867,31.804C21.935,31.856,22.006,31.905,22.082,31.948L33.766,38.664C33.853,38.714,33.942,38.756,34.034,38.79L34.034,55.17ZM34.034,55.17"/>
  <path fill-opacity="1" stroke-miterlimit="4" fill-rule="nonzero" stroke-linejoin="miter" stroke-opacity="1" stroke-width="1px" stroke-dasharray="none" fill="#000000" stroke-linecap="butt" stroke="none" d="M35.651,55.064L47.334,48.331C47.916,47.997,48.274,47.379,48.274,46.711L48.274,33.277C48.273,32.695,48.003,32.151,47.549,31.8C47.48,31.854,47.406,31.904,47.329,31.948L35.645,38.665C35.58,38.702,35.512,38.736,35.444,38.765L35.444,55.167C35.515,55.137,35.583,55.103,35.651,55.064ZM35.651,55.064"/>
  <path stroke-dasharray="none" stroke-linejoin="miter" stroke-width="1px" stroke-linecap="butt" fill-opacity="1" stroke="none" stroke-miterlimit="4" fill="#000000" stroke-opacity="1" fill-rule="nonzero" d="M19.52,30.464C20.024,30.754,20.63,30.793,21.161,30.58C21.149,30.495,21.143,30.409,21.143,30.322L21.143,16.842C21.143,16.742,21.151,16.642,21.167,16.545L6.919,8.326C6.904,8.421,6.896,8.519,6.896,8.618L6.897,22.098C6.897,22.769,7.255,23.388,7.836,23.724L19.52,30.464ZM19.52,30.464"/>
</g>
  <g id="Heavy-S" transform="matrix(1.0,0.0,0.0,1.0,2610.3849252929685,633.1849448242187)">  <path stroke-linejoin="miter" stroke-dasharray="none" stroke-linecap="butt" fill-opacity="1" stroke-width="1px" stroke="none" stroke-opacity="1" fill-rule="nonzero" fill="#000000" stroke-miterlimit="4" d="M22.083,15.216C22.018,15.253,21.955,15.294,21.896,15.338L7.644,7.118C7.705,7.072,7.769,7.03,7.836,6.991L19.519,0.252C20.101,-0.084,20.818,-0.084,21.399,0.251L33.083,6.992C33.589,7.284,33.926,7.791,34.004,8.36L34.034,8.348C34.489,8.174,34.995,8.184,35.444,8.376C35.512,8.404,35.58,8.438,35.645,8.476L47.329,15.216C47.911,15.552,48.268,16.171,48.268,16.842L48.269,30.322C48.269,30.398,48.264,30.471,48.255,30.544C48.197,31.029,47.953,31.472,47.575,31.779L47.57,31.783L47.554,31.796L47.549,31.8C47.481,31.748,47.41,31.699,47.334,31.656L35.65,24.915C35.583,24.877,35.514,24.843,35.444,24.813C34.995,24.622,34.489,24.614,34.034,24.79L34.015,24.797L33.994,24.805C33.918,24.837,33.843,24.874,33.771,24.916L22.087,31.655C22.015,31.697,21.945,31.744,21.88,31.794L21.866,31.802C21.481,31.502,21.228,31.065,21.161,30.582L21.175,30.574C21.251,30.543,21.326,30.506,21.399,30.464L33.082,23.724C33.155,23.682,33.225,23.636,33.29,23.586L33.3,23.577C33.309,23.571,33.317,23.565,33.324,23.558C33.704,23.252,33.949,22.81,34.008,22.326C34.017,22.251,34.022,22.175,34.022,22.098L34.022,8.618C34.022,8.531,34.016,8.444,34.004,8.36C33.923,8.392,33.843,8.431,33.766,8.476L22.083,15.216ZM22.083,15.216"/>
  <path stroke-linejoin="miter" fill-rule="nonzero" fill="#000000" stroke-width="1px" stroke-miterlimit="4" stroke-linecap="butt" stroke-opacity="1" fill-opacity="1" stroke="none" stroke-dasharray="none" d="M34.034,55.17C33.944,55.135,33.856,55.094,33.771,55.045L22.087,48.329C21.505,47.994,21.147,47.377,21.148,46.708L21.147,33.276C21.148,32.697,21.417,32.155,21.867,31.804C21.935,31.856,22.006,31.905,22.082,31.948L33.766,38.664C33.853,38.714,33.942,38.756,34.034,38.79L34.034,55.17ZM34.034,55.17"/>
  <path fill="#000000" stroke-dasharray="none" fill-rule="nonzero" stroke-linecap="butt" stroke-miterlimit="4" fill-opacity="1" stroke-linejoin="miter" stroke-opacity="1" stroke-width="1px" stroke="none" d="M35.651,55.064L47.334,48.331C47.916,47.997,48.274,47.379,48.274,46.711L48.274,33.277C48.273,32.695,48.003,32.151,47.549,31.8C47.48,31.854,47.406,31.904,47.329,31.948L35.645,38.665C35.58,38.702,35.512,38.736,35.444,38.765L35.444,55.167C35.515,55.137,35.583,55.103,35.651,55.064ZM35.651,55.064"/>
  <path stroke-linecap="butt" fill="#000000" stroke-linejoin="miter" fill-opacity="1" stroke-miterlimit="4" stroke-dasharray="none" stroke-opacity="1" stroke="none" fill-rule="nonzero" stroke-width="1px" d="M19.52,30.464C20.024,30.754,20.63,30.793,21.161,30.58C21.149,30.495,21.143,30.409,21.143,30.322L21.143,16.842C21.143,16.742,21.151,16.642,21.167,16.545L6.919,8.326C6.904,8.421,6.896,8.519,6.896,8.618L6.897,22.098C6.897,22.769,7.255,23.388,7.836,23.724L19.52,30.464ZM19.52,30.464"/>
</g>
  <g id="Bold-S" transform="matrix(1.0,0.0,0.0,1.0,2313.6749252929685,633.1849448242187)">  <path stroke-dasharray="none" stroke-linecap="butt" fill-rule="nonzero" stroke-width="1px" stroke-opacity="1" fill-opacity="1" stroke-linejoin="miter" stroke-miterlimit="4" fill="#000000" stroke="none" d="M22.083,15.216C22.018,15.253,21.955,15.294,21.896,15.338L7.644,7.118C7.705,7.072,7.769,7.03,7.836,6.991L19.519,0.252C20.101,-0.084,20.818,-0.084,21.399,0.251L33.083,6.992C33.589,7.284,33.926,7.791,34.004,8.36L34.034,8.348C34.489,8.174,34.995,8.184,35.444,8.376C35.512,8.404,35.58,8.438,35.645,8.476L47.329,15.216C47.911,15.552,48.268,16.171,48.268,16.842L48.269,30.322C48.269,30.398,48.264,30.471,48.255,30.544C48.197,31.029,47.953,31.472,47.575,31.779L47.57,31.783L47.554,31.796L47.549,31.8C47.481,31.748,47.41,31.699,47.334,31.656L35.65,24.915C35.583,24.877,35.514,24.843,35.444,24.813C34.995,24.622,34.489,24.614,34.034,24.79L34.015,24.797L33.994,24.805C33.918,24.837,33.843,24.874,33.771,24.916L22.087,31.655C22.015,31.697,21.945,31.744,21.88,31.794L21.866,31.802C21.481,31.502,21.228,31.065,21.161,30.582L21.175,30.574C21.251,30.543,21.326,30.506,21.399,30.464L33.082,23.724C33.155,23.682,33.225,23.636,33.29,23.586L33.3,23.577C33.309,23.571,33.317,23.565,33.324,23.558C33.704,23.252,33.949,22.81,34.008,22.326C34.017,22.251,34.022,22.175,34.022,22.098L34.022,8.618C34.022,8.531,34.016,8.444,34.004,8.36C33.923,8.392,33.843,8.431,33.766,8.476L22.083,15.216ZM22.083,15.216"/>
  <path stroke-linecap="butt" fill="#000000" stroke-dasharray="none" stroke-linejoin="miter" fill-rule="nonzero" fill-opacity="1" stroke-miterlimit="4" stroke="none" stroke-width="1px" stroke-opacity="1" d="M34.034,55.17C33.944,55.135,33.856,55.094,33.771,55.045L22.087,48.329C21.505,47.994,21.147,47.377,21.148,46.708L21.147,33.276C21.148,32.697,21.417,32.155,21.867,31.804C21.935,31.856,22.006,31.905,22.082,31.948L33.766,38.664C33.853,38.714,33.942,38.756,34.034,38.79L34.034,55.17ZM34.034,55.17"/>
  <path stroke-miterlimit="4" stroke-linecap="butt" fill="#000000" fill-opacity="1" stroke-linejoin="miter" stroke-dasharray="none" stroke="none" stroke-opacity="1" stroke-width="1px" fill-rule="nonzero" d="M35.651,55.064L47.334,48.331C47.916,47.997,48.274,47.379,48.274,46.711L48.274,33.277C48.273,32.695,48.003,32.151,47.549,31.8C47.48,31.854,47.406,31.904,47.329,31.948L35.645,38.665C35.58,38.702,35.512,38.736,35.444,38.765L35.444,55.167C35.515,55.137,35.583,55.103,35.651,55.064ZM35.651,55.064"/>
  <path stroke-width="1px" fill-opacity="1" fill="#000000" stroke-dasharray="none" stroke-linejoin="miter" stroke-opacity="1" fill-rule="nonzero" stroke-miterlimit="4" stroke="none" stroke-linecap="butt" d="M19.52,30.464C20.024,30.754,20.63,30.793,21.161,30.58C21.149,30.495,21.143,30.409,21.143,30.322L21.143,16.842C21.143,16.742,21.151,16.642,21.167,16.545L6.919,8.326C6.904,8.421,6.896,8.519,6.896,8.618L6.897,22.098C6.897,22.769,7.255,23.388,7.836,23.724L19.52,30.464ZM19.52,30.464"/>
</g>
  <g id="Semibold-S" transform="matrix(1.0,0.0,0.0,1.0,2016.9649252929687,633.1849448242187)">  <path fill-opacity="1" stroke="none" stroke-opacity="1" stroke-miterlimit="4" stroke-linecap="butt" stroke-dasharray="none" stroke-linejoin="miter" fill="#000000" stroke-width="1px" fill-rule="nonzero" d="M22.083,15.216C22.018,15.253,21.955,15.294,21.896,15.338L7.644,7.118C7.705,7.072,7.769,7.03,7.836,6.991L19.519,0.252C20.101,-0.084,20.818,-0.084,21.399,0.251L33.083,6.992C33.589,7.284,33.926,7.791,34.004,8.36L34.034,8.348C34.489,8.174,34.995,8.184,35.444,8.376C35.512,8.404,35.58,8.438,35.645,8.476L47.329,15.216C47.911,15.552,48.268,16.171,48.268,16.842L48.269,30.322C48.269,30.398,48.264,30.471,48.255,30.544C48.197,31.029,47.953,31.472,47.575,31.779L47.57,31.783L47.554,31.796L47.549,31.8C47.481,31.748,47.41,31.699,47.334,31.656L35.65,24.915C35.583,24.877,35.514,24.843,35.444,24.813C34.995,24.622,34.489,24.614,34.034,24.79L34.015,24.797L33.994,24.805C33.918,24.837,33.843,24.874,33.771,24.916L22.087,31.655C22.015,31.697,21.945,31.744,21.88,31.794L21.866,31.802C21.481,31.502,21.228,31.065,21.161,30.582L21.175,30.574C21.251,30.543,21.326,30.506,21.399,30.464L33.082,23.724C33.155,23.682,33.225,23.636,33.29,23.586L33.3,23.577C33.309,23.571,33.317,23.565,33.324,23.558C33.704,23.252,33.949,22.81,34.008,22.326C34.017,22.251,34.022,22.175,34.022,22.098L34.022,8.618C34.022,8.531,34.016,8.444,34.004,8.36C33.923,8.392,33.843,8.431,33.766,8.476L22.083,15.216ZM22.083,15.216"/>
  <path fill="#000000" stroke-miterlimit="4" stroke-width="1px" stroke-opacity="1" fill-opacity="1" fill-rule="nonzero" stroke-linecap="butt" stroke-linejoin="miter" stroke="none" stroke-dasharray="none" d="M34.034,55.17C33.944,55.135,33.856,55.094,33.771,55.045L22.087,48.329C21.505,47.994,21.147,47.377,21.148,46.708L21.147,33.276C21.148,32.697,21.417,32.155,21.867,31.804C21.935,31.856,22.006,31.905,22.082,31.948L33.766,38.664C33.853,38.714,33.942,38.756,34.034,38.79L34.034,55.17ZM34.034,55.17"/>
  <path stroke-opacity="1" stroke-dasharray="none" fill-rule="nonzero" stroke-width="1px" fill="#000000" stroke-miterlimit="4" fill-opacity="1" stroke-linecap="butt" stroke-linejoin="miter" stroke="none" d="M35.651,55.064L47.334,48.331C47.916,47.997,48.274,47.379,48.274,46.711L48.274,33.277C48.273,32.695,48.003,32.151,47.549,31.8C47.48,31.854,47.406,31.904,47.329,31.948L35.645,38.665C35.58,38.702,35.512,38.736,35.444,38.765L35.444,55.167C35.515,55.137,35.583,55.103,35.651,55.064ZM35.651,55.064"/>
  <path stroke-dasharray="none" stroke="none" stroke-linejoin="miter" stroke-linecap="butt" fill="#000000" stroke-opacity="1" stroke-miterlimit="4" fill-opacity="1" fill-rule="nonzero" stroke-width="1px" d="M19.52,30.464C20.024,30.754,20.63,30.793,21.161,30.58C21.149,30.495,21.143,30.409,21.143,30.322L21.143,16.842C21.143,16.742,21.151,16.642,21.167,16.545L6.919,8.326C6.904,8.421,6.896,8.519,6.896,8.618L6.897,22.098C6.897,22.769,7.255,23.388,7.836,23.724L19.52,30.464ZM19.52,30.464"/>
</g>
  <g id="Medium-S" transform="matrix(1.0,0.0,0.0,1.0,1720.2549252929687,633.1849448242187)">  <path stroke-opacity="1" stroke-dasharray="none" stroke-linecap="butt" fill-opacity="1" fill-rule="nonzero" stroke-miterlimit="4" stroke-linejoin="miter" stroke-width="1px" stroke="none" fill="#000000" d="M22.083,15.216C22.018,15.253,21.955,15.294,21.896,15.338L7.644,7.118C7.705,7.072,7.769,7.03,7.836,6.991L19.519,0.252C20.101,-0.084,20.818,-0.084,21.399,0.251L33.083,6.992C33.589,7.284,33.926,7.791,34.004,8.36L34.034,8.348C34.489,8.174,34.995,8.184,35.444,8.376C35.512,8.404,35.58,8.438,35.645,8.476L47.329,15.216C47.911,15.552,48.268,16.171,48.268,16.842L48.269,30.322C48.269,30.398,48.264,30.471,48.255,30.544C48.197,31.029,47.953,31.472,47.575,31.779L47.57,31.783L47.554,31.796L47.549,31.8C47.481,31.748,47.41,31.699,47.334,31.656L35.65,24.915C35.583,24.877,35.514,24.843,35.444,24.813C34.995,24.622,34.489,24.614,34.034,24.79L34.015,24.797L33.994,24.805C33.918,24.837,33.843,24.874,33.771,24.916L22.087,31.655C22.015,31.697,21.945,31.744,21.88,31.794L21.866,31.802C21.481,31.502,21.228,31.065,21.161,30.582L21.175,30.574C21.251,30.543,21.326,30.506,21.399,30.464L33.082,23.724C33.155,23.682,33.225,23.636,33.29,23.586L33.3,23.577C33.309,23.571,33.317,23.565,33.324,23.558C33.704,23.252,33.949,22.81,34.008,22.326C34.017,22.251,34.022,22.175,34.022,22.098L34.022,8.618C34.022,8.531,34.016,8.444,34.004,8.36C33.923,8.392,33.843,8.431,33.766,8.476L22.083,15.216ZM22.083,15.216"/>
  <path stroke-dasharray="none" stroke-width="1px" stroke-linejoin="miter" stroke-linecap="butt" fill="#000000" stroke="none" stroke-opacity="1" fill-opacity="1" fill-rule="nonzero" stroke-miterlimit="4" d="M34.034,55.17C33.944,55.135,33.856,55.094,33.771,55.045L22.087,48.329C21.505,47.994,21.147,47.377,21.148,46.708L21.147,33.276C21.148,32.697,21.417,32.155,21.867,31.804C21.935,31.856,22.006,31.905,22.082,31.948L33.766,38.664C33.853,38.714,33.942,38.756,34.034,38.79L34.034,55.17ZM34.034,55.17"/>
  <path stroke-linejoin="miter" stroke-opacity="1" stroke-width="1px" stroke-linecap="butt" stroke-dasharray="none" fill-opacity="1" fill-rule="nonzero" stroke-miterlimit="4" stroke="none" fill="#000000" d="M35.651,55.064L47.334,48.331C47.916,47.997,48.274,47.379,48.274,46.711L48.274,33.277C48.273,32.695,48.003,32.151,47.549,31.8C47.48,31.854,47.406,31.904,47.329,31.948L35.645,38.665C35.58,38.702,35.512,38.736,35.444,38.765L35.444,55.167C35.515,55.137,35.583,55.103,35.651,55.064ZM35.651,55.064"/>
  <path stroke-linejoin="miter" stroke-opacity="1" fill-opacity="1" fill-rule="nonzero" fill="#000000" stroke-width="1px" stroke-dasharray="none" stroke="none" stroke-miterlimit="4" stroke-linecap="butt" d="M19.52,30.464C20.024,30.754,20.63,30.793,21.161,30.58C21.149,30.495,21.143,30.409,21.143,30.322L21.143,16.842C21.143,16.742,21.151,16.642,21.167,16.545L6.919,8.326C6.904,8.421,6.896,8.519,6.896,8.618L6.897,22.098C6.897,22.769,7.255,23.388,7.836,23.724L19.52,30.464ZM19.52,30.464"/>
</g>
  <g id="Regular-S" transform="matrix(1.0,0.0,0.0,1.0,1423.5449252929686,633.1849448242187)">  <path stroke-linejoin="miter" fill-opacity="1" stroke-miterlimit="4" stroke="none" stroke-dasharray="none" fill-rule="nonzero" fill="#000000" stroke-linecap="butt" stroke-width="1px" stroke-opacity="1" d="M22.083,15.216C22.018,15.253,21.955,15.294,21.896,15.338L7.644,7.118C7.705,7.072,7.769,7.03,7.836,6.991L19.519,0.252C20.101,-0.084,20.818,-0.084,21.399,0.251L33.083,6.992C33.589,7.284,33.926,7.791,34.004,8.36L34.034,8.348C34.489,8.174,34.995,8.184,35.444,8.376C35.512,8.404,35.58,8.438,35.645,8.476L47.329,15.216C47.911,15.552,48.268,16.171,48.268,16.842L48.269,30.322C48.269,30.398,48.264,30.471,48.255,30.544C48.197,31.029,47.953,31.472,47.575,31.779L47.57,31.783L47.554,31.796L47.549,31.8C47.481,31.748,47.41,31.699,47.334,31.656L35.65,24.915C35.583,24.877,35.514,24.843,35.444,24.813C34.995,24.622,34.489,24.614,34.034,24.79L34.015,24.797L33.994,24.805C33.918,24.837,33.843,24.874,33.771,24.916L22.087,31.655C22.015,31.697,21.945,31.744,21.88,31.794L21.866,31.802C21.481,31.502,21.228,31.065,21.161,30.582L21.175,30.574C21.251,30.543,21.326,30.506,21.399,30.464L33.082,23.724C33.155,23.682,33.225,23.636,33.29,23.586L33.3,23.577C33.309,23.571,33.317,23.565,33.324,23.558C33.704,23.252,33.949,22.81,34.008,22.326C34.017,22.251,34.022,22.175,34.022,22.098L34.022,8.618C34.022,8.531,34.016,8.444,34.004,8.36C33.923,8.392,33.843,8.431,33.766,8.476L22.083,15.216ZM22.083,15.216"/>
  <path stroke="none" stroke-width="1px" stroke-linecap="butt" fill="#000000" stroke-linejoin="miter" fill-opacity="1" stroke-dasharray="none" fill-rule="nonzero" stroke-opacity="1" stroke-miterlimit="4" d="M34.034,55.17C33.944,55.135,33.856,55.094,33.771,55.045L22.087,48.329C21.505,47.994,21.147,47.377,21.148,46.708L21.147,33.276C21.148,32.697,21.417,32.155,21.867,31.804C21.935,31.856,22.006,31.905,22.082,31.948L33.766,38.664C33.853,38.714,33.942,38.756,34.034,38.79L34.034,55.17ZM34.034,55.17"/>
  <path stroke-width="1px" stroke-opacity="1" stroke-linecap="butt" stroke-miterlimit="4" fill-rule="nonzero" fill-opacity="1" fill="#000000" stroke-linejoin="miter" stroke-dasharray="none" stroke="none" d="M35.651,55.064L47.334,48.331C47.916,47.997,48.274,47.379,48.274,46.711L48.274,33.277C48.273,32.695,48.003,32.151,47.549,31.8C47.48,31.854,47.406,31.904,47.329,31.948L35.645,38.665C35.58,38.702,35.512,38.736,35.444,38.765L35.444,55.167C35.515,55.137,35.583,55.103,35.651,55.064ZM35.651,55.064"/>
  <path stroke-opacity="1" stroke-linecap="butt" fill-opacity="1" fill="#000000" stroke-dasharray="none" stroke-width="1px" stroke="none" stroke-miterlimit="4" fill-rule="nonzero" stroke-linejoin="miter" d="M19.52,30.464C20.024,30.754,20.63,30.793,21.161,30.58C21.149,30.495,21.143,30.409,21.143,30.322L21.143,16.842C21.143,16.742,21.151,16.642,21.167,16.545L6.919,8.326C6.904,8.421,6.896,8.519,6.896,8.618L6.897,22.098C6.897,22.769,7.255,23.388,7.836,23.724L19.52,30.464ZM19.52,30.464"/>
</g>
  <g id="Light-S" transform="matrix(1.0,0.0,0.0,1.0,1126.8349252929688,633.1849448242187)">  <path fill-rule="nonzero" fill-opacity="1" stroke-linejoin="miter" stroke="none" stroke-miterlimit="4" stroke-dasharray="none" fill="#000000" stroke-opacity="1" stroke-width="1px" stroke-linecap="butt" d="M22.083,15.216C22.018,15.253,21.955,15.294,21.896,15.338L7.644,7.118C7.705,7.072,7.769,7.03,7.836,6.991L19.519,0.252C20.101,-0.084,20.818,-0.084,21.399,0.251L33.083,6.992C33.589,7.284,33.926,7.791,34.004,8.36L34.034,8.348C34.489,8.174,34.995,8.184,35.444,8.376C35.512,8.404,35.58,8.438,35.645,8.476L47.329,15.216C47.911,15.552,48.268,16.171,48.268,16.842L48.269,30.322C48.269,30.398,48.264,30.471,48.255,30.544C48.197,31.029,47.953,31.472,47.575,31.779L47.57,31.783L47.554,31.796L47.549,31.8C47.481,31.748,47.41,31.699,47.334,31.656L35.65,24.915C35.583,24.877,35.514,24.843,35.444,24.813C34.995,24.622,34.489,24.614,34.034,24.79L34.015,24.797L33.994,24.805C33.918,24.837,33.843,24.874,33.771,24.916L22.087,31.655C22.015,31.697,21.945,31.744,21.88,31.794L21.866,31.802C21.481,31.502,21.228,31.065,21.161,30.582L21.175,30.574C21.251,30.543,21.326,30.506,21.399,30.464L33.082,23.724C33.155,23.682,33.225,23.636,33.29,23.586L33.3,23.577C33.309,23.571,33.317,23.565,33.324,23.558C33.704,23.252,33.949,22.81,34.008,22.326C34.017,22.251,34.022,22.175,34.022,22.098L34.022,8.618C34.022,8.531,34.016,8.444,34.004,8.36C33.923,8.392,33.843,8.431,33.766,8.476L22.083,15.216ZM22.083,15.216"/>
  <path stroke-opacity="1" fill="#000000" stroke-linecap="butt" fill-rule="nonzero" stroke-miterlimit="4" stroke-linejoin="miter" fill-opacity="1" stroke-width="1px" stroke-dasharray="none" stroke="none" d="M34.034,55.17C33.944,55.135,33.856,55.094,33.771,55.045L22.087,48.329C21.505,47.994,21.147,47.377,21.148,46.708L21.147,33.276C21.148,32.697,21.417,32.155,21.867,31.804C21.935,31.856,22.006,31.905,22.082,31.948L33.766,38.664C33.853,38.714,33.942,38.756,34.034,38.79L34.034,55.17ZM34.034,55.17"/>
  <path stroke-linejoin="miter" stroke-dasharray="none" stroke="none" fill="#000000" fill-rule="nonzero" stroke-linecap="butt" stroke-miterlimit="4" fill-opacity="1" stroke-width="1px" stroke-opacity="1" d="M35.651,55.064L47.334,48.331C47.916,47.997,48.274,47.379,48.274,46.711L48.274,33.277C48.273,32.695,48.003,32.151,47.549,31.8C47.48,31.854,47.406,31.904,47.329,31.948L35.645,38.665C35.58,38.702,35.512,38.736,35.444,38.765L35.444,55.167C35.515,55.137,35.583,55.103,35.651,55.064ZM35.651,55.064"/>
  <path fill-rule="nonzero" stroke-linecap="butt" stroke-opacity="1" fill="#000000" stroke-miterlimit="4" stroke="none" stroke-dasharray="none" stroke-width="1px" stroke-linejoin="miter" fill-opacity="1" d="M19.52,30.464C20.024,30.754,20.63,30.793,21.161,30.58C21.149,30.495,21.143,30.409,21.143,30.322L21.143,16.842C21.143,16.742,21.151,16.642,21.167,16.545L6.919,8.326C6.904,8.421,6.896,8.519,6.896,8.618L6.897,22.098C6.897,22.769,7.255,23.388,7.836,23.724L19.52,30.464ZM19.52,30.464"/>
</g>
  <g id="Thin-S" transform="matrix(1.0,0.0,0.0,1.0,830.1249252929688,633.1849448242187)">  <path stroke-opacity="1" stroke-dasharray="none" stroke-width="1px" fill="#000000" stroke-miterlimit="4" fill-opacity="1" fill-rule="nonzero" stroke-linecap="butt" stroke-linejoin="miter" stroke="none" d="M22.083,15.216C22.018,15.253,21.955,15.294,21.896,15.338L7.644,7.118C7.705,7.072,7.769,7.03,7.836,6.991L19.519,0.252C20.101,-0.084,20.818,-0.084,21.399,0.251L33.083,6.992C33.589,7.284,33.926,7.791,34.004,8.36L34.034,8.348C34.489,8.174,34.995,8.184,35.444,8.376C35.512,8.404,35.58,8.438,35.645,8.476L47.329,15.216C47.911,15.552,48.268,16.171,48.268,16.842L48.269,30.322C48.269,30.398,48.264,30.471,48.255,30.544C48.197,31.029,47.953,31.472,47.575,31.779L47.57,31.783L47.554,31.796L47.549,31.8C47.481,31.748,47.41,31.699,47.334,31.656L35.65,24.915C35.583,24.877,35.514,24.843,35.444,24.813C34.995,24.622,34.489,24.614,34.034,24.79L34.015,24.797L33.994,24.805C33.918,24.837,33.843,24.874,33.771,24.916L22.087,31.655C22.015,31.697,21.945,31.744,21.88,31.794L21.866,31.802C21.481,31.502,21.228,31.065,21.161,30.582L21.175,30.574C21.251,30.543,21.326,30.506,21.399,30.464L33.082,23.724C33.155,23.682,33.225,23.636,33.29,23.586L33.3,23.577C33.309,23.571,33.317,23.565,33.324,23.558C33.704,23.252,33.949,22.81,34.008,22.326C34.017,22.251,34.022,22.175,34.022,22.098L34.022,8.618C34.022,8.531,34.016,8.444,34.004,8.36C33.923,8.392,33.843,8.431,33.766,8.476L22.083,15.216ZM22.083,15.216"/>
  <path stroke="none" fill-opacity="1" stroke-linejoin="miter" stroke-width="1px" fill="#000000" stroke-miterlimit="4" stroke-dasharray="none" stroke-linecap="butt" fill-rule="nonzero" stroke-opacity="1" d="M34.034,55.17C33.944,55.135,33.856,55.094,33.771,55.045L22.087,48.329C21.505,47.994,21.147,47.377,21.148,46.708L21.147,33.276C21.148,32.697,21.417,32.155,21.867,31.804C21.935,31.856,22.006,31.905,22.082,31.948L33.766,38.664C33.853,38.714,33.942,38.756,34.034,38.79L34.034,55.17ZM34.034,55.17"/>
  <path stroke-miterlimit="4" stroke-linejoin="miter" fill-rule="nonzero" stroke-width="1px" stroke="none" stroke-dasharray="none" fill-opacity="1" fill="#000000" stroke-opacity="1" stroke-linecap="butt" d="M35.651,55.064L47.334,48.331C47.916,47.997,48.274,47.379,48.274,46.711L48.274,33.277C48.273,32.695,48.003,32.151,47.549,31.8C47.48,31.854,47.406,31.904,47.329,31.948L35.645,38.665C35.58,38.702,35.512,38.736,35.444,38.765L35.444,55.167C35.515,55.137,35.583,55.103,35.651,55.064ZM35.651,55.064"/>
  <path stroke-dasharray="none" fill="#000000" stroke-width="1px" stroke-linejoin="miter" stroke-miterlimit="4" fill-rule="nonzero" stroke-linecap="butt" stroke="none" fill-opacity="1" stroke-opacity="1" d="M19.52,30.464C20.024,30.754,20.63,30.793,21.161,30.58C21.149,30.495,21.143,30.409,21.143,30.322L21.143,16.842C21.143,16.742,21.151,16.642,21.167,16.545L6.919,8.326C6.904,8.421,6.896,8.519,6.896,8.618L6.897,22.098C6.897,22.769,7.255,23.388,7.836,23.724L19.52,30.464ZM19.52,30.464"/>
</g>
  <g id="Ultralight-S" transform="matrix(1.0,0.0,0.0,1.0,533.4149252929687,633.1849448242187)">  <path stroke-miterlimit="4" stroke-opacity="1" fill-opacity="1" stroke-dasharray="none" stroke-width="1px" stroke="none" stroke-linejoin="miter" stroke-linecap="butt" fill="#000000" fill-rule="nonzero" d="M22.083,15.216C22.018,15.253,21.955,15.294,21.896,15.338L7.644,7.118C7.705,7.072,7.769,7.03,7.836,6.991L19.519,0.252C20.101,-0.084,20.818,-0.084,21.399,0.251L33.083,6.992C33.589,7.284,33.926,7.791,34.004,8.36L34.034,8.348C34.489,8.174,34.995,8.184,35.444,8.376C35.512,8.404,35.58,8.438,35.645,8.476L47.329,15.216C47.911,15.552,48.268,16.171,48.268,16.842L48.269,30.322C48.269,30.398,48.264,30.471,48.255,30.544C48.197,31.029,47.953,31.472,47.575,31.779L47.57,31.783L47.554,31.796L47.549,31.8C47.481,31.748,47.41,31.699,47.334,31.656L35.65,24.915C35.583,24.877,35.514,24.843,35.444,24.813C34.995,24.622,34.489,24.614,34.034,24.79L34.015,24.797L33.994,24.805C33.918,24.837,33.843,24.874,33.771,24.916L22.087,31.655C22.015,31.697,21.945,31.744,21.88,31.794L21.866,31.802C21.481,31.502,21.228,31.065,21.161,30.582L21.175,30.574C21.251,30.543,21.326,30.506,21.399,30.464L33.082,23.724C33.155,23.682,33.225,23.636,33.29,23.586L33.3,23.577C33.309,23.571,33.317,23.565,33.324,23.558C33.704,23.252,33.949,22.81,34.008,22.326C34.017,22.251,34.022,22.175,34.022,22.098L34.022,8.618C34.022,8.531,34.016,8.444,34.004,8.36C33.923,8.392,33.843,8.431,33.766,8.476L22.083,15.216ZM22.083,15.216"/>
  <path fill="#000000" stroke-opacity="1" fill-opacity="1" fill-rule="nonzero" stroke-linecap="butt" stroke="none" stroke-linejoin="miter" stroke-miterlimit="4" stroke-width="1px" stroke-dasharray="none" d="M34.034,55.17C33.944,55.135,33.856,55.094,33.771,55.045L22.087,48.329C21.505,47.994,21.147,47.377,21.148,46.708L21.147,33.276C21.148,32.697,21.417,32.155,21.867,31.804C21.935,31.856,22.006,31.905,22.082,31.948L33.766,38.664C33.853,38.714,33.942,38.756,34.034,38.79L34.034,55.17ZM34.034,55.17"/>
  <path stroke-linejoin="miter" stroke-opacity="1" fill-rule="nonzero" stroke-miterlimit="4" stroke-dasharray="none" fill="#000000" stroke="none" fill-opacity="1" stroke-width="1px" stroke-linecap="butt" d="M35.651,55.064L47.334,48.331C47.916,47.997,48.274,47.379,48.274,46.711L48.274,33.277C48.273,32.695,48.003,32.151,47.549,31.8C47.48,31.854,47.406,31.904,47.329,31.948L35.645,38.665C35.58,38.702,35.512,38.736,35.444,38.765L35.444,55.167C35.515,55.137,35.583,55.103,35.651,55.064ZM35.651,55.064"/>
  <path fill-opacity="1" stroke-miterlimit="4" stroke-linejoin="miter" stroke-dasharray="none" stroke="none" fill="#000000" stroke-opacity="1" fill-rule="nonzero" stroke-width="1px" stroke-linecap="butt" d="M19.52,30.464C20.024,30.754,20.63,30.793,21.161,30.58C21.149,30.495,21.143,30.409,21.143,30.322L21.143,16.842C21.143,16.742,21.151,16.642,21.167,16.545L6.919,8.326C6.904,8.421,6.896,8.519,6.896,8.618L6.897,22.098C6.897,22.769,7.255,23.388,7.836,23.724L19.52,30.464ZM19.52,30.464"/>
</g>
 </g>
</svg>
